<svg width="828" height="780" viewBox="0 0 828 780" fill="none" xmlns="http://www.w3.org/2000/svg">
<path fill-rule="evenodd" clip-rule="evenodd" d="M743.172 364.501C743.131 367.224 742.858 373.479 742.173 376.115C749.801 363.909 761.231 350.568 762.969 335.619C762.428 335.471 760.024 335.249 759.604 334.935C755.658 336.765 756.404 331.132 755.821 328.527C754.246 323.011 750.937 317.585 749.499 312.032C745.719 310.401 753.309 309.709 754.412 309.677C749.828 304.582 747.719 297.577 744.455 291.632C739.659 281.53 735.363 271.203 731.527 260.714C730.689 267.286 730.539 273.93 731.049 280.538C732.627 308.845 743.278 336.062 743.172 364.501ZM478.43 314.218C480.804 314.616 484.758 314.993 487.127 315.187C484.018 313.337 474.83 309.812 480.62 306.645C482.405 305.994 484.321 306.922 486.121 307.209C493.598 308.438 502.83 308.373 510.393 307.754C507.636 305.495 504.006 302.241 501.315 299.903C499.885 298.661 498.499 298.19 500.107 296.335C502.942 293.699 508.013 295.64 511.291 296.798C520.334 301.856 530.544 307.342 540.25 311.234C540.352 309.876 540.289 308.121 541.6 307.209C545.446 305.4 548.277 305.929 552.369 305.447C557.139 304.733 561.378 303.922 566.101 302.662C569.191 300.31 571.074 293.373 576.014 294.149C571.639 283.157 578.308 271.689 580.813 261.164C583.939 250.393 585.582 239.206 585.626 228.007C585.657 210.076 596.06 196.317 611.092 187.116C617.018 183.121 620.998 173.403 628.335 171.457C629.268 167.883 629.324 166.313 630.144 162.711C630.555 161.677 630.861 156.063 631.895 156.254C633.036 150.694 638.85 148.463 643.88 147.299C650.421 145.946 659.549 144.306 665.429 148.125C667.132 149.54 667.88 151.909 668.005 154.025C668.659 156.843 670.018 159.762 671.602 162.207C674.305 161.295 672.775 159.596 675.449 159.2C699.863 155.588 726.964 173.469 742.804 190.913C771.518 220.35 794.457 260.536 790.702 302.49C791.712 302.342 796.187 301.641 796.123 303.053C795.904 309.193 794.772 314.314 794.46 320.448C794.77 328.576 786.313 329.555 780.203 331.559C780.579 355.139 771.999 378.724 758.569 398.107C755.306 401.921 750.41 415.156 744.455 409.884C743.753 409.064 749.196 403.387 750.164 401.985C753.47 397.829 762.229 377.254 756.039 373.144C754.663 377.586 741.338 398.943 738.963 386.821C735.808 388.649 730.595 389.896 726.824 389.707C719.735 393.541 712.836 397.682 706.028 401.985C702.856 408.203 698.205 414.175 694.308 420.145C721.278 482.341 747.603 584.71 782.311 643.291C785.337 647.117 768.689 653.619 765.749 655.023C771.372 664.139 772.076 674.702 776.354 684.518C777.169 684.386 777.991 684.559 778.726 684.952C784.003 688.52 785.995 701.293 786.296 707.591C786.052 710.4 787.095 714.649 784.818 716.718C785.137 717.062 785.374 717.482 785.543 717.91C787.145 719.156 786.948 721.907 786.092 723.613C783.078 729.857 761.053 729.278 753.905 730.614C728.586 732.755 707.336 733.092 682.02 730.752C678.913 730.102 681.263 725.262 682.797 723.949C682.089 723.519 681.635 722.733 681.946 721.723C687.701 705.291 708.501 706.403 721.088 697.628C717.778 695.717 719.914 696.327 721.993 697.07C724.2 695.685 726.347 694.127 728.335 692.406C726.808 691.464 727.561 690.842 729.214 691.631C731.818 689.546 733.846 686.323 737.164 685.312C740.413 684.518 740.413 683.13 740.413 682.256C738.479 674.493 736.367 666.533 735.281 658.66C734.123 660.365 724.131 646.702 721.993 643.291C713.686 630.156 713.709 617.213 707.896 602.929C695.958 571.822 671.505 506.627 656.593 476.877C621.701 533.642 638.696 610.414 617.171 670.945C616.215 672.763 614.416 679.583 611.925 677.616C610.956 677.842 609.927 677.964 609.004 678.094C609.271 684.711 609.767 691.311 610.869 697.858C611.894 698.129 612.766 698.667 613.218 699.607C614.945 698.34 618.253 717.025 618.536 718.928C618.54 721.383 620.66 726.85 618.724 728.309C621.513 729.449 621.969 733.661 620.008 735.827C614.182 743.643 585.787 741.495 575.311 742.806C562.064 742.477 506.646 747.429 502.798 734.883C502.033 732.019 503.344 728.403 506.011 727.301C504.944 724.813 507.5 722.412 509.063 720.666C518.284 711.092 532.461 709.583 544.737 705.416C544.279 704.948 560.761 696.517 564.334 694.432C564.098 691.601 569.991 694.44 570.007 694.432C572.817 689.475 574.807 681.761 576.691 676.413C573.214 675.337 564.837 674.381 563.285 670.945C558.295 669.274 563.3 662.049 564.334 658.66C593.583 585.595 565.833 493.433 609.004 424.471C601.091 419.946 592.012 410.044 599.829 401.737C601.394 399.74 605.22 393.523 605.157 394.609C606.611 388.689 609.857 378.492 610.869 372.507C614.582 350.53 612.148 329.948 609.004 307.754C604.64 324.454 589.597 338.368 574.294 345.999C568.322 348.459 560.436 353.537 553.879 351.935C547.961 350.187 537.214 338.058 535.947 332.233C518.696 334.281 500.784 332.637 484.298 327.223C482.181 326.424 479.677 326.492 480.331 323.493C480.984 320.948 485.637 321.597 487.638 322.07C484.58 320.377 476.64 319.934 476.701 315.509C476.804 314.586 477.486 314.06 478.43 314.218Z" fill="#D08B5B"/>
<path fill-rule="evenodd" clip-rule="evenodd" d="M705.895 403.796L702.801 405.898L701.705 406.639C694.571 411.451 688.447 415.307 682.393 418.709L681.778 419.054L681.163 419.395C672.766 424.036 664.857 427.569 657.197 429.959C639.243 435.561 623.097 434.73 608.486 426.183L608.043 425.921L607.347 425.506L606.749 426.88L606.183 428.187C603.075 435.392 600.825 441.02 598.89 446.594L598.803 446.843L598.641 447.316C593.011 462.902 589.306 479.61 586.908 498.753L586.748 500.046C585.102 513.518 584.243 525.878 583.196 547.908L583.096 550.047L582.611 560.464C582.194 569.303 581.905 574.762 581.542 580.389L581.45 581.801L581.299 584.042L581.222 585.142C580.524 594.999 579.671 603.76 578.555 612.086L578.406 613.181C575.567 633.828 571.061 651.712 564.107 668.278L563.896 668.779L563.691 669.264L564.095 669.601C564.261 669.74 564.389 669.996 564.412 670.26L564.415 670.313L564.435 670.938L565.059 670.998C566.63 671.15 568.096 671.498 570.557 672.238L572.027 672.683L572.594 672.852C574.037 673.279 574.962 673.52 575.935 673.71L576.118 673.745L576.427 673.802L576.993 673.932L577.566 674.06C586.841 676.111 596.443 676.903 609.865 677.086L610.858 677.098L610.966 677.054L610.975 677.052L611.012 677.046C611.086 677.037 611.201 677.039 611.389 677.054L611.498 677.063L612.484 677.155L612.74 676.159C613.351 673.809 613.978 671.655 615.031 668.251L615.217 667.649L616.503 663.525C618.575 656.847 619.559 653.284 620.364 649.179L620.443 648.776L620.525 648.342L620.529 648.317C622.668 634.059 624.423 620.57 626.091 606.032L626.311 604.106C626.843 599.386 627.782 590.689 628.576 583.279L629.958 570.341L630.066 569.358C632.965 543.081 635.477 528.36 640.223 512.978C643.839 501.257 648.699 489.865 655.396 477.607L655.645 477.153L655.728 477.003L655.946 477.18C658.078 478.911 659.337 480.081 659.637 480.577L659.651 480.601L660.02 481.298L660.332 481.881L662.202 485.338C662.398 485.702 662.568 486.021 662.727 486.32L663.018 486.875L663.435 487.683L663.735 488.273L663.942 488.684L664.175 489.152L664.662 489.878L664.878 490.203L665.29 490.824L665.493 491.139C668.665 496.068 671.148 501.38 674.417 509.778L674.839 510.867L675.508 512.618L677.51 517.906L678.473 520.433L678.934 521.63C679.385 522.796 679.809 523.876 680.227 524.924L680.436 525.445L680.778 526.29L681.311 527.6L681.683 528.516C685.961 539.083 690.38 550.783 695.114 563.963L696.021 566.495L696.681 568.346C699.324 575.775 702.019 583.524 705.137 592.627L705.925 594.932L707.076 598.303L714.915 621.339L716.219 625.158L717.388 628.565L717.727 629.295L718.058 630.002C722.02 638.438 725.701 645.073 729.92 651.047L730.067 651.255L730.151 651.409L730.229 651.545C730.521 652.041 730.882 652.513 731.471 653.199L731.553 653.294L732.219 654.061L732.369 654.237C733.486 655.561 733.894 656.288 733.947 657.179L733.962 657.518L735.127 658.66L735.587 658.42L735.689 658.369C736.61 657.921 738.155 657.605 740.711 657.286L741.005 657.249L741.686 657.169L743.898 656.919C745.863 656.691 746.968 656.519 747.788 656.28L747.894 656.249L748.002 656.214L748.339 656.148C759.156 653.993 769.592 650.115 779.137 644.696L779.473 644.504L779.809 644.311L780.379 643.982L779.771 642.712C778.15 639.317 776.509 635.798 774.848 632.153C764.269 608.937 753.255 581.637 740.08 546.632L739.68 545.569L738.669 542.874L737.842 540.66C731.154 522.715 713.829 475.44 707.695 458.905L706.624 456.026L706.332 455.245L701.807 444.099L701.536 443.439C701.396 443.102 701.251 442.753 701.097 442.385L700.693 441.42L699.222 437.935L698.614 436.481C697.444 433.671 696.698 431.783 695.991 429.812L695.904 429.57L695.646 428.838C695.378 428.065 695.415 425.614 695.835 423.065L695.877 422.818L695.922 422.566C696.567 419.057 697.811 415.847 699.635 413.475L699.7 413.391L699.723 413.371L700.4 412.386C701.856 410.258 702.937 408.619 703.936 407.003L704.019 406.868L705.895 403.796Z" fill="#FFCF77"/>
<path fill-rule="evenodd" clip-rule="evenodd" d="M564.839 692.787C563.777 693.837 555.628 700.081 544.623 705.342C537.897 708.557 529.7 710.218 522.774 713.4C515.301 716.834 509.217 721.792 505.499 725.378L501.673 735.587C502.254 739.288 519.46 741.633 537.517 742.23C563.97 743.105 596.837 740.571 599.978 740.237C605.396 739.74 622.276 740.294 619.164 731.466C618.28 731.745 618.001 726.069 617.38 725.522L616.844 721.195C615.307 708.848 614.405 702.204 614.139 701.263C614.071 701.155 614 701.049 613.921 700.949C613.006 699.768 611.458 699.437 610.033 699.524C609.917 699.531 609.801 699.546 609.683 699.563C609.49 699.664 609.303 699.783 609.125 699.925L608.976 699.945C608.951 699.949 608.925 699.953 608.9 699.957C608.848 699.965 608.803 699.979 608.76 699.996C608.724 699.937 608.693 699.873 608.662 699.809C607.779 700.078 606.88 700.442 606.019 700.483L605.396 700.757L604.59 701.115L602.262 702.16L601.741 702.391C598.741 703.705 591.21 706.524 584.284 705.579C577.576 704.663 571.943 698.01 569.869 696.258C568.362 694.877 566.244 694.234 564.839 692.787ZM738.03 684.824C737.371 684.997 734.459 686.764 731.95 689.158C729.579 691.42 727.697 694.242 724.165 696.809C719.064 700.518 699.472 707.599 688.79 714.398C683.252 717.923 679.72 729.423 679.628 729.954C713.242 731.879 753.332 731.503 786.625 726.199C787.258 726.015 786.988 711.41 785.483 701.608L785.437 701.313C784.352 694.428 783.118 690.643 783.043 690.481L782.958 690.339C781.576 688.088 777.796 685.67 775.348 687.315L775.325 687.335L774.866 687.748C772.679 689.708 763.541 697.561 757.196 695.655C755.118 694.981 753.394 693.635 751.586 692.461C746.723 689.326 743.517 686.709 738.03 684.824ZM737.059 684.39C736.613 684.677 736.188 685.001 735.777 685.348C736.312 685.028 736.878 684.763 737.488 684.573C737.355 684.525 737.226 684.471 737.102 684.411L737.059 684.39Z" fill="white"/>
<path fill-rule="evenodd" clip-rule="evenodd" d="M678.437 158.068L678.053 158.116C676.554 158.311 675.3 158.635 674.234 159.172L674.112 159.235L673.624 159.491L673.505 160.028C673.133 161.714 671.749 165.517 671.002 167.01L670.963 167.087L670.938 167.136L670.85 167.298L670.665 167.722C667.036 175.987 662.135 183.843 656.163 191.052L655.869 191.406L655.683 191.655C650.247 198.897 643.334 204.098 637.583 204.237L637.409 204.239L637.103 204.237C633.815 204.162 630.884 202.436 628.354 198.775C626.623 196.23 625.636 193.067 625.267 189.274C624.972 186.252 625.066 183.026 625.468 178.982L625.495 178.717L625.56 178.089L625.606 177.665C625.626 177.484 625.659 177.444 625.725 177.438L625.739 177.438L625.765 177.438L625.781 177.438L625.795 177.44L625.821 177.444L627.038 177.934L627.495 176.548L627.593 176.261L627.7 175.948L628.139 174.695L628.278 174.29L628.388 173.96C628.546 173.483 628.676 173.055 628.792 172.631L628.835 172.472L629.466 169.997L627.357 170.761C627.245 170.801 627.135 170.843 627.026 170.887L626.864 170.953L626.71 171.017L626.58 171.121C626.133 171.478 625.684 171.767 624.889 172.221L624.787 172.279L623.743 172.867L623.511 173.064L623.353 173.201C622.389 174.05 621.571 174.957 620.322 176.495L620.22 176.621L619.313 177.747L618.884 178.274L618.636 178.682L618.45 178.994L618.345 179.171L617.755 180.179L617.478 180.648C616.772 181.832 616.322 182.508 615.766 183.193L615.661 183.322L615.584 183.413C614.663 184.503 613.518 185.474 611.805 186.693L611.505 186.905L611.059 187.216L610.894 187.355C610.492 187.689 610.108 187.969 609.732 188.201L609.624 188.266L609.492 188.314L608.922 188.72L608.486 189.034C605.392 191.272 603.081 193.182 600.969 195.33C599.496 196.829 598.124 198.385 596.866 199.993L596.616 200.315C596.406 200.586 596.214 200.843 595.991 201.148L595.756 201.473L594.632 203.046L594.328 203.465C593.897 204.055 593.568 204.48 593.221 204.896L593.163 204.965L593.004 205.151L592.846 205.282L592.736 205.49C591.554 207.731 590.639 210.054 589.996 212.506L589.937 212.735L589.868 212.933C589.01 215.419 588.457 218.051 588.121 221.012L588.088 221.309L588.033 221.848C587.852 223.676 587.762 225.285 587.687 227.907L587.663 228.8L587.581 232.36L587.558 233.182C587.461 236.512 587.314 238.725 587.003 240.983L586.985 241.118L586.947 241.38L586.943 241.415C585.753 251.765 583.33 261.876 579.709 271.573L579.538 272.028L579.411 272.363L578.484 274.778L578.272 275.338C577.285 277.957 576.695 279.767 576.252 281.683C575.64 284.334 575.458 286.753 575.777 289.073L575.804 289.258L575.819 289.38C575.999 290.855 576.032 292.241 575.938 293.267L575.925 293.399L575.585 293.402C574.468 293.41 573.556 293.768 572.83 294.462L572.761 294.53L572.692 294.6C572.142 295.177 571.751 295.879 571.296 296.973L571.189 297.24C571.058 297.574 570.726 298.415 570.482 299.012L570.309 299.43L570.195 299.689C570.032 300.055 568.798 301.503 566.709 302.424C565.488 302.963 562.168 303.519 562.168 303.519L561.953 303.605C558.959 304.802 556.275 305.376 550.998 306.088L550.027 306.217L547.841 306.5C545.644 306.789 544.257 306.997 542.833 307.267L542.425 307.345L539.55 307.919L541.761 309.509C545.561 312.241 559.361 326.996 560.059 332.051C560.889 338.055 548.098 334.089 546.319 332.138L546.12 331.917L545.926 331.7L545.331 331.027L544.746 331.067L544.168 331.108C543.004 331.195 541.796 331.307 540.503 331.444L538.256 331.686L539.847 334.125L540.264 334.758L540.548 335.187L540.838 335.622L541.133 336.062C545.236 342.148 548.705 346.126 553.002 349.076L553.147 349.174L553.228 349.233C554.311 349.997 555.503 350.387 556.807 350.45L556.938 350.456L557.069 350.459L557.174 350.459C557.894 350.46 558.638 350.366 559.434 350.186L559.616 350.143C560.342 349.971 561.033 349.753 562.046 349.392L562.306 349.298L563.152 348.99L563.806 348.757L564.006 348.687C566.879 347.662 569.683 346.501 572.41 345.208C589.94 336.982 603.299 324.528 608.833 309.351L608.998 308.89L609.178 308.369L612.044 308.993L612.121 309.65C615.585 339.891 614.898 363.943 608.701 386.354L608.512 387.033L608.334 387.656L608.037 388.372C607.143 390.514 606.168 392.726 604.939 395.421L604.43 396.533L604.076 396.64L603.851 397.117C603.567 397.719 603.239 398.311 602.869 398.892L602.779 399.032C602.404 399.607 602.017 400.114 601.348 400.919L601.183 401.118L600.194 402.291L599.979 402.55C599.935 402.605 599.892 402.657 599.849 402.71L599.724 402.865L599.515 403.129C599.418 403.252 599.327 403.37 599.241 403.485L599.114 403.656L598.982 403.887C598.442 404.846 598.046 405.705 597.765 406.579L597.713 406.743L597.688 406.827L597.675 406.914C596.917 412.026 599.126 416.592 603.62 420.568C606.972 423.533 611.422 426.031 616.442 428.073L616.733 428.19C623.1 430.579 629.476 431.796 635.938 431.925L636.261 431.931L637.08 431.936C646.801 431.936 656.598 429.519 667.243 424.86L667.716 424.652C675.265 421.315 682.192 417.458 693.341 410.64L694.044 410.21L695.543 409.289L699.654 406.755L699.743 406.552L699.937 406.396L700.066 406.296C700.868 405.681 701.737 405.17 703.257 404.376L703.509 404.245L704.25 403.863L705.101 403.421L705.705 403.055L706.613 402.508C709.905 400.529 712.776 398.861 715.518 397.348L715.767 397.211L716.455 396.835L716.494 396.813C718.144 395.831 719.769 394.882 721.377 393.962L722.024 393.593L722.572 393.214L723.06 392.879L723.551 392.546L723.923 392.296C726.187 390.785 727.974 389.752 729.825 388.943C731.699 388.124 733.297 387.584 734.793 387.339L734.947 387.315L735.188 387.279L735.395 387.151C736.27 386.611 737.05 386.032 737.748 385.391C739.395 383.88 740.355 382.068 740.816 379.847L740.845 379.702L740.938 379.23L740.675 378.827C740.631 378.76 740.589 378.497 740.571 377.966L740.567 377.828L740.557 377.411L740.55 377.231C740.529 376.712 740.49 376.393 740.388 376.079L740.362 376.002L740.339 375.817C740.023 373.234 739.845 370.964 739.634 367.035L739.59 366.213L739.366 361.761C739.247 359.477 739.142 357.804 739.01 356.199L738.965 355.666L738.897 354.913L738.834 354.161C738.152 346.274 737.064 339.63 734.423 325.981L733.042 318.862C732.315 315.075 731.829 312.443 731.381 309.83L731.199 308.758L730.933 307.146L730.8 306.318C729.421 297.665 728.714 290.339 728.696 283.332C728.674 275.178 729.611 267.624 731.662 260.391L731.764 260.036L731.803 259.902L733.939 261.945C733.939 261.945 747.45 289.951 753.944 302.537L754.252 303.132L754.312 303.281C754.601 304.03 754.665 305.987 754.45 307.963L754.424 308.191L754.395 308.423L754.36 308.676C754.208 309.728 753.99 310.644 753.739 311.277C753.659 311.48 753.579 311.643 753.507 311.759L753.481 311.801L753.463 311.826L753.331 311.826C753.117 311.825 752.903 311.823 752.691 311.82L752.372 311.815L751.896 311.804L749.071 311.722L750.544 313.688C754.79 319.356 758.047 326.006 760.013 332.959L760.099 333.266L760.445 334.529L761.556 334.425L761.757 334.408L762.374 334.361L763.105 334.294L763.339 333.927L763.776 334.2L764.573 334.048L765.215 333.922C770.169 332.932 774.746 331.644 782.434 329.205L783.188 328.965L786.042 328.052L787.57 327.565L787.792 327.489L787.99 327.419L788.178 327.351C790.341 326.546 791.576 325.479 792.18 323.494L792.225 323.341L792.269 323.111L794.331 312.296L794.667 310.57C795.03 308.715 795.363 307.059 795.694 305.462L795.942 304.273L796.376 302.228L794.247 302.047L793.996 302.024C793.347 301.961 792.843 301.892 792.419 301.799L792.325 301.778L792.306 301.283L792.287 300.845C792.263 300.328 792.236 299.789 792.203 299.218L792.174 298.721L792.129 298.01C791.879 294.193 791.466 289.988 790.842 285.443C789.044 272.334 785.906 259.245 781.08 247.004C777.427 237.742 771.764 228.151 764.441 218.307C758.631 210.496 752.091 202.926 744.791 195.271C735.34 185.211 727.837 178.261 719.748 172.592C709.729 165.572 699.612 161.272 688.844 159.928L688.567 159.894L688.119 159.807C687.492 159.686 686.876 159.579 686.035 159.442L685.884 159.417L683.074 158.972L682.308 158.846C681.299 158.678 680.533 158.536 679.784 158.376L679.463 158.307L679.116 158.229L678.437 158.068Z" fill="#9DDADB"/>
<path fill-rule="evenodd" clip-rule="evenodd" d="M667.945 150.264C667.683 150.37 667.504 150.768 667.398 151.367C667.105 151.458 666.855 151.673 666.78 151.998C666.559 152.952 666.817 153.947 667.017 154.898L667.039 155.008C667.228 155.928 667.459 156.844 667.741 157.741L667.782 157.968C668.469 161.677 669.793 165.203 671.348 164.604L670.989 165.257C664.888 176.311 647.463 205.992 633.857 201.761C625.935 198.59 626.048 188.284 626.627 181.112C632.51 184.714 633.61 157.137 632.404 154.089C631.444 153.384 630.981 159.728 630.624 160.603C629.845 164.082 628.889 167.517 627.991 170.968C626.094 171.343 624.3 172.098 622.714 173.18C622.639 173.223 622.561 173.263 622.487 173.308C621.535 173.886 620.792 174.624 620.13 175.441C619.382 176.276 618.742 177.192 618.137 178.132C616.809 179.639 615.542 181.202 614.233 182.726C613.612 183.449 612.977 184.149 612.327 184.833L611.825 185.253C611.742 185.323 611.658 185.392 611.574 185.461C596.543 194.831 586.137 208.85 586.108 227.111C586.064 238.519 584.421 249.913 581.295 260.885C578.79 271.605 570.697 282.563 575.072 293.758C570.132 292.968 569.673 299.31 566.584 301.706L565.613 301.968C561.273 303.134 557.293 304.107 552.852 304.784C548.76 305.274 544.029 304.735 540.184 306.579C538.873 307.508 539.342 309.183 539.24 310.566C529.535 306.602 520.818 301.126 511.775 295.974L511.472 295.866C508.125 294.68 502.155 292.897 499.404 295.502C497.796 297.391 499.42 299.078 500.85 300.344C503.541 302.725 506.395 304.909 509.152 307.211C501.723 307.83 494.272 307.336 486.925 306.133L486.524 306.066C484.725 305.774 482.602 305.074 480.817 305.737C475.027 308.963 481.726 312.73 484.835 314.614C482.466 314.417 480.102 314.123 477.729 313.717C476.785 313.556 476.102 314.093 475.998 315.032C475.938 319.54 481.885 319.783 484.943 321.507L484.698 321.449C482.699 320.987 479.824 320.581 479.197 323.069C478.543 326.123 482.667 327.358 484.783 328.171C501.269 333.686 519.18 335.36 536.43 333.275C537.697 339.208 548.444 351.562 554.362 353.342C560.919 354.974 568.805 349.802 574.777 347.296C590.079 339.524 604.258 326.703 608.622 309.692C612.289 336.068 610.807 362.658 605.301 388.609C604.41 390.632 603.469 392.624 602.411 394.565C602.092 394.616 601.821 394.829 601.759 395.261C601.726 395.497 601.679 395.727 601.625 395.954C600.571 397.741 599.416 399.458 598.344 401.235C598.123 401.602 597.904 401.983 597.704 402.374C590.568 410.778 599.266 421.608 607.046 426.138C563.876 496.382 591.758 584.903 562.51 659.327L562.445 659.539C561.334 663.078 557.953 670.364 562.843 672.032C564.396 675.532 572.219 675.946 575.696 677.042C573.812 682.489 571.718 687.877 568.908 692.926L568.857 692.949V692.949C567.738 692.127 565.339 691.278 564.347 692.174C564.106 692.204 563.865 692.272 563.631 692.388C562.096 693.15 560.861 694.606 559.393 695.523C558.599 696.018 557.774 696.469 556.924 696.862C556.133 697.228 555.292 697.469 554.646 698.073C554.442 698.263 554.391 698.505 554.441 698.728C553.932 698.992 553.422 699.257 552.915 699.523L552.639 699.351C548.153 696.56 544.545 695.048 551.071 700.409C548.733 701.489 546.335 702.433 543.922 703.318C542.088 702.437 540.132 701.795 538.115 701.707C537.752 702.155 540.525 703.885 540.982 704.362C528.707 708.607 515.206 711.931 505.986 721.683L505.884 721.799C504.314 723.566 501.89 725.962 502.934 728.441C500.267 729.564 498.955 733.247 499.721 736.164C503.568 748.943 562.547 743.9 575.793 744.234C586.269 742.899 614.663 745.087 620.488 737.125C622.45 734.919 621.994 730.629 619.205 729.468C621.141 727.982 619.021 722.413 619.016 719.913L618.972 719.624C618.675 717.757 617.39 710.449 616.056 705.343C616.029 704.941 615.975 704.529 615.911 704.113L615.869 703.85C615.603 702.222 615.196 700.567 614.143 699.258C613.387 698.318 612.339 697.738 611.203 697.528C610.898 695.584 610.648 693.635 610.433 691.683C610.282 689.388 610.224 687.089 610.25 684.789C610.264 683.627 610.294 682.467 610.351 681.307C610.393 680.453 610.344 679.439 610.561 678.566C610.706 678.714 610.912 678.793 611.142 678.714C611.632 678.547 612.083 678.238 612.533 677.985C612.55 677.975 612.563 677.964 612.578 677.953C614.98 679.511 616.718 672.846 617.652 671.037C639.176 609.382 622.182 538.426 657.073 480.606C661.889 490.93 666.028 500.4 670.665 510.795C685.144 543.259 703.019 600.443 715.006 634.817C718.267 641.844 722.101 648.635 726.658 654.91C728.115 656.559 729.092 658.986 731.201 659.873L731.386 659.901V659.901C731.948 660.951 732.73 661.836 733.892 661.806C734.177 661.799 734.467 661.767 734.761 661.716C735.79 668.869 737.085 676.067 738.807 683.106L738.574 683.009C737.448 682.544 736.263 682.148 735.107 682.251C732.3 682.961 733.339 685.411 735.558 686.219C732.796 687.076 730.928 689.492 728.878 691.503C727.145 690.57 725.203 690.087 723.128 690.29C722.81 690.321 722.568 690.46 722.399 690.651C722.28 690.651 722.165 690.658 722.055 690.676L722.281 690.812V690.812C721.912 691.431 722.175 692.374 723.128 692.379C723.875 692.383 724.595 692.451 725.291 692.579C725.774 692.861 726.255 693.147 726.73 693.444C725.13 694.855 723.426 696.157 721.672 697.347C720.746 696.874 719.766 696.478 718.747 696.16C717.431 695.749 716.857 697.838 718.179 698.217C718.459 698.297 718.737 698.386 719.013 698.482L719.284 698.646C719.347 698.684 719.413 698.723 719.482 698.763C706.896 707.702 685.621 706.569 679.866 723.306C679.676 723.938 679.774 724.483 680.042 724.912C678.794 726.054 678.219 728.108 678.5 729.684L678.476 729.817C678.262 731.092 678.57 732.212 679.941 732.503C689.094 733.354 698.225 733.895 707.418 734.062L708.16 734.069C721.331 734.157 785.394 733.679 788.284 725.232C789.054 723.668 789.292 721.241 788.164 719.847C788.033 719.096 787.776 718.413 787.318 717.878C789.173 716.007 788.26 711.288 788.487 708.912C788.08 700.978 786.469 692.471 781.613 685.979C781.534 685.876 781.438 685.813 781.339 685.782C780.491 684.932 779.377 684.394 778.103 684.321C778.064 684.223 778.023 684.124 777.985 684.025C776.994 681.693 776.054 679.317 775.119 676.931C774.426 674.219 773.702 671.515 772.978 668.825C772.253 666.137 771.545 663.446 770.852 660.751C770.3 658.602 769.825 656.18 768.87 654.127C768.896 654.039 768.921 653.952 768.949 653.864L769.943 653.462C776.454 650.819 786.77 646.361 784.503 643.417C760.351 593.292 736.709 521.932 714.544 469.967C714.198 468.949 713.832 467.936 713.43 466.932C712.451 464.489 711.46 462.05 710.454 459.617L709.849 458.158L700.193 434.953V434.953C699.182 432.524 698.043 430.108 697.246 427.599C696.478 425.181 696.272 422.776 697.73 420.576C699.035 418.608 700.874 416.978 702.345 415.129C703.457 413.731 704.542 412.237 705.513 410.668C706.396 409.506 707.134 408.175 707.792 407.103C708.846 405.386 710.187 403.484 710.953 401.499C711.94 400.877 712.929 400.259 713.922 399.647C715.636 398.687 717.323 397.682 718.965 396.595C721.039 395.363 723.126 394.153 725.23 392.97C725.989 392.594 726.749 392.219 727.509 391.845C729.788 392.043 736.084 389.237 738.229 387.339C738.474 387.29 738.718 387.234 738.96 387.173C739.057 388.386 739.454 389.483 740.378 390.297C746.523 393.343 754.356 379.549 756.515 374.946C760.805 379.132 750.569 399.837 747.262 404.07L747.086 404.332C746.201 405.656 745.274 407.142 744.02 408.12L743.893 408.216C743.033 408.852 742.874 409.844 743.575 410.679C749.531 416.049 755.782 404.257 759.045 400.373C772.474 380.63 781.055 356.606 780.679 332.588C786.788 330.547 795.245 329.549 794.935 321.271C795.247 315.022 796.379 308.84 796.598 302.587C796.662 301.149 792.186 301.862 791.176 302.014C792.664 287.645 790.416 273.057 786.407 259.248C775.88 223.913 732.533 160.227 689.868 157.928C689.905 157.858 689.887 157.765 689.792 157.74C687.861 157.239 685.727 157.319 683.742 157.382C681.677 157.447 679.577 157.462 677.523 157.695C675.393 157.936 673.139 158.718 671.708 160.264L671.213 159.371C670.638 158.329 670.083 157.276 669.665 156.126C669.453 155.545 669.287 154.942 669.135 154.333C668.964 153.465 668.921 152.561 668.51 151.772C668.499 151.752 668.485 151.735 668.473 151.715C668.325 151.218 668.156 150.732 667.945 150.264ZM615.581 729.438C616.191 730.057 617.248 730.326 618.184 730.031C621.295 738.858 604.415 738.305 598.998 738.801C593.221 739.416 487.99 744.882 505.787 731.938C526.665 739.885 596.497 740.762 615.581 729.438ZM564.334 694.433C565.739 695.879 567.857 696.523 569.364 697.903C573.623 701.502 577.05 706.564 582.938 707.518C590.672 708.96 597.645 705.148 604.563 702.129C605.425 702.088 606.323 701.724 607.206 701.455C607.238 701.519 607.269 701.583 607.304 701.642C607.347 701.625 607.393 701.611 607.445 701.603C607.522 701.59 607.594 701.582 607.67 701.571C607.847 701.429 608.034 701.31 608.228 701.209C608.345 701.191 608.462 701.177 608.577 701.17C610.003 701.083 611.551 701.414 612.466 702.594C612.544 702.695 612.615 702.801 612.684 702.909C613.127 704.478 613.184 706.376 612.97 707.704C612.901 708.138 613.082 708.564 613.388 708.81C613.662 715.378 614.402 721.974 614.919 728.454C612.331 729.383 609.646 730.09 606.959 730.537C588.414 732.814 569.671 733.872 550.984 733.3C539.859 732.898 528.751 731.906 517.741 730.255C514.183 729.921 510.54 728.546 506.984 729.101C506.832 728.815 506.596 728.571 506.268 728.404C515.383 715.939 530.965 712.569 544.548 707.104C546.792 708.536 548.173 711.519 550.672 712.407C551.642 712.552 552.991 711.981 552.849 710.752C552.446 708.236 549.724 707.089 547.891 705.628C549.858 704.711 551.787 703.714 553.669 702.606C555.517 704.27 557.705 705.536 559.436 707.31C558.452 709.709 562.554 709.501 562.6 706.948C562.316 704.124 557.835 702.929 555.834 701.282C558.96 699.382 561.752 696.986 564.334 694.433ZM784.57 719.113C784.679 719.328 784.857 719.523 785.12 719.675C785.576 719.938 785.357 721.331 785.334 721.8L785.333 721.835C785.308 722.677 785.255 723.518 785.182 724.357C784.413 725.05 783.429 725.577 782.336 725.894C749.043 731.198 715.112 731.629 681.498 729.703C681.653 728.811 682.306 728.077 682.884 727.332C704.134 729.136 725.895 727.249 747.181 725.492C759.625 723.858 772.663 723.182 784.57 719.113ZM736.1 686.469C741.587 688.355 746.693 690.972 751.556 694.107C753.363 695.281 755.088 696.627 757.166 697.3C764.359 699.462 775.144 689.078 775.317 688.961C777.815 687.282 780.464 688.847 781.824 691.175C781.949 691.39 784.033 703.295 783.97 709.127C784.344 711.109 783.346 714.349 783.877 716.511C783.46 717.012 782.865 717.248 782.464 717.773C782.319 717.963 782.36 718.178 782.485 718.34C763.06 719.936 743.747 722.965 724.229 723.604C710.871 724.31 697.487 724.148 684.127 723.986C687.166 715.074 697.52 712.721 705.428 709.787C711.403 707.644 716.905 704.45 721.745 700.345C723.844 701.816 725.5 703.878 726.987 705.95C727.662 706.792 729.05 707.428 729.774 706.261C730.519 705.05 729.064 703.52 727.268 702.18C726.323 700.783 725.131 699.593 723.76 698.612C725.276 697.262 726.737 695.855 728.105 694.36C730.942 696.28 733.027 699.041 735.068 701.721C736.049 702.789 737.883 701.376 737.078 700.172C736.434 699.342 735.708 698.576 734.931 697.859C733.759 695.652 732.073 693.615 730.027 692.204L730.183 692.006C731.892 689.816 733.37 687.189 736.1 686.469ZM784.444 717.715C784.492 717.772 784.541 717.828 784.594 717.882C784.547 717.978 784.51 718.078 784.484 718.181L783.985 718.22V718.22C784.159 718.077 784.311 717.902 784.444 717.715ZM577.521 677.403C587.698 679.322 598.212 680.059 608.485 678.475C607.295 685.099 606.55 691.766 606.94 698.493C591.581 702.92 585.199 710.303 572.419 695.549C573.037 694.61 573.393 693.458 573.808 692.346C575.574 687.522 577.033 682.532 577.521 677.403ZM764.456 655.675C764.601 655.995 764.863 656.259 765.24 656.375C765.374 656.969 765.513 657.561 765.661 658.153C765.911 661.205 767.064 664.231 768.257 667.047C768.339 667.241 768.42 667.435 768.501 667.63C769.288 669.972 770.113 672.309 770.927 674.649C771.543 677.08 772.086 679.53 772.654 681.973C772.764 683.63 772.999 685.272 773.361 686.896C773.378 686.972 773.401 687.041 773.426 687.108C772.857 687.361 772.308 687.655 771.79 687.951C756.207 699.641 758.898 691.825 743.936 685.281C744.022 684.652 743.707 684.085 743.45 683.434L743.417 683.349C743.401 683.308 743.385 683.266 743.37 683.225C743.394 682.977 743.38 682.71 743.314 682.427C741.799 676.238 739.689 670.157 737.714 664.101C737.398 663.189 737.032 662.299 736.658 661.409C746.144 661.287 755.528 658.765 764.456 655.675ZM705.623 404.891C619.55 512.053 638.407 524.69 619.874 648.234C618.073 657.851 614.415 666.979 611.994 676.413L611.66 676.381C611.329 676.349 611.014 676.329 610.78 676.404L610.771 676.408V676.408L609.816 676.396C598.681 676.243 587.497 675.662 576.62 673.127C572.774 672.452 569.025 670.683 565.176 670.313C565.161 669.814 564.924 669.348 564.601 669.078C594.288 598.969 573.604 518.88 599.36 447.579C601.805 440.444 604.716 433.467 607.727 426.554C640.83 446.315 677.826 423.936 705.623 404.891ZM768.56 658.681C768.743 659.49 768.943 660.288 769.125 661.058L769.394 662.208C769.012 661.046 768.711 659.867 768.56 658.681ZM694.072 423.869C694.014 425.64 694.443 427.427 695.023 429.093C696.881 434.432 699.262 439.634 701.393 444.87C702.839 448.423 704.273 451.982 705.721 455.535C727.178 512.767 753.516 589.481 779.501 643.718C769.711 649.376 758.975 653.379 747.869 655.548C745.291 656.409 737.916 656.447 735.306 657.812L734.711 657.23V657.23C734.608 654.788 731.836 653.047 730.726 650.906C725.716 643.859 721.723 636.153 718.1 628.322L717.508 626.603C707.876 598.6 695.307 560.05 682.064 527.462L681.655 526.456C676.167 513.016 672.559 500.626 665.936 490.459C665.575 489.912 665.21 489.364 664.842 488.816C664.571 488.273 664.298 487.73 664.02 487.189C662.833 484.877 661.552 482.616 660.344 480.316C659.829 479.335 659.318 478.229 659.047 477.096C669.568 458.643 682.106 441.395 694.072 423.869ZM678.314 159.438C681.616 160.24 685 160.567 688.32 161.232C711.207 163.957 728.754 180.161 743.868 196.249C772.5 226.273 789.158 263.215 787.928 304.968C777.704 306.828 767.585 309.55 757.167 310.145C758.681 307.855 756.146 304.991 755.273 302.799C740.205 273.735 728.571 241.65 719.123 211.051L719.38 212.386C722.346 227.743 725.802 243.036 731.076 257.788C729.548 256.288 704.451 236.36 706.412 242.95C714.08 248.933 722.741 253.674 730.775 259.165C721.222 291.024 735.033 323.305 737.657 355.177C738.316 362.264 738.259 369.4 739.145 376.46C739.482 377.258 739.127 378.882 739.623 379.642C739.256 381.516 738.483 383.223 736.888 384.686C736.217 385.301 735.484 385.835 734.714 386.31C732.79 386.6 730.858 387.34 729.292 388.025C725.806 389.549 722.739 391.795 719.623 393.942L719.54 393.998V393.998C714.516 396.575 709.498 399.502 704.461 402.555L704.236 402.673C702.362 403.655 700.447 404.54 698.814 405.901C698.74 405.964 698.69 406.035 698.658 406.109L695.598 407.995C671.093 423.094 645.826 438.025 617.094 427.248C609.022 424.002 597.286 417.425 598.793 407.255C599.09 406.28 599.542 405.363 600.053 404.472C600.195 404.28 600.341 404.092 600.488 403.906C601.602 402.502 602.848 401.213 603.815 399.695C604.208 399.078 604.56 398.443 604.869 397.788C605.087 397.722 605.281 397.569 605.403 397.303C606.786 394.292 608.14 391.276 609.402 388.211C624.697 334.979 606.132 277.785 600.88 224.094C600.516 221.02 599.98 217.914 599.981 214.817C599.981 214.672 599.77 214.677 599.759 214.817C597.906 228.521 599.312 242.352 601.073 255.993C603.328 273.059 606.29 290.054 608.326 307.15C602.915 324.383 587.761 336.836 571.848 344.303C569.141 345.587 566.372 346.731 563.55 347.739L563.361 347.804C560.259 348.888 556.759 350.563 553.767 348.367C548.025 344.477 543.971 338.541 540.25 332.824C541.755 332.661 543.263 332.52 544.771 332.416C548.475 336.646 553.013 340.236 557.802 343.17C559.754 344.287 561.971 343.815 562.874 341.629C563.725 339.566 562.682 337.157 561.927 335.168L561.818 334.878C557.996 324.588 551.36 315.158 542.399 308.715C549.159 307.365 556.182 307.406 562.667 304.739C562.313 305.11 562.777 305.525 563.002 305.84C562.922 306.45 563.366 306.896 563.911 307.059C569.203 313.961 573.213 322.135 574.051 330.889C573.828 333.87 576.5 337.314 579.074 334.183C581.087 325.469 573.169 311.85 566.207 306.473C573.189 301.689 571.154 294.786 575.537 294.754C576.669 296.924 578.147 299.002 580.01 300.614C580.852 301.297 581.874 301.813 582.778 302.419C583.728 303.057 584.718 301.654 583.965 300.883L583.766 300.645C580.908 297.232 577.513 293.876 576.923 289.258C576.069 283.571 578.63 277.809 580.592 272.614C584.355 262.655 586.85 252.292 588.066 241.718C589.443 232.243 587.768 222.415 591.017 213.247C591.663 210.693 592.592 208.368 593.731 206.21C593.758 206.187 593.784 206.164 593.809 206.136C595.16 204.575 596.24 202.839 597.5 201.204C598.818 199.494 600.247 197.867 601.76 196.327C604.289 193.754 607.081 191.607 609.992 189.54C610.046 189.521 610.1 189.496 610.155 189.463C610.7 189.142 611.224 188.751 611.729 188.322L611.778 188.288C613.471 187.114 615.198 185.839 616.519 184.245C617.816 182.679 618.739 180.854 619.798 179.129C621.245 177.367 622.624 175.479 624.37 174.01C625.357 173.448 626.384 172.917 627.265 172.214C627.41 172.153 627.556 172.096 627.705 172.042C627.33 173.571 626.762 174.977 626.25 176.529C625.509 176.217 624.494 176.563 624.369 177.703L624.323 178.129C623.578 185.112 623.202 193.562 627.315 199.608C636.374 212.719 649.904 201.525 656.746 192.306C662.887 184.953 668.05 176.774 671.862 167.984L671.925 167.868C672.635 166.523 674.174 162.421 674.608 160.45C675.708 159.873 677.045 159.593 678.314 159.438ZM707.315 403.806C707.343 403.84 707.374 403.87 707.408 403.896C706.124 405.718 704.9 407.602 703.638 409.43C704.672 407.742 705.645 406.042 706.505 404.322C706.775 404.149 707.045 403.978 707.315 403.806ZM779.216 333.042C774.306 359.649 767.289 387.644 747.738 407.538C753.823 398.983 758.555 388.996 759.931 378.535C759.988 375.727 758.964 372.762 755.852 372.346C755.321 372.275 754.917 372.75 754.728 373.172L754.709 373.214C753.485 376.131 751.893 378.905 750.008 381.447L749.823 381.688C748.401 383.524 742.364 391.008 741.521 387.431C742.138 369.346 760.862 361.89 763.929 336.983C769.175 336.428 774.154 334.439 779.216 333.042ZM738.963 385.82C738.943 386.104 738.933 386.385 738.937 386.662C738.659 386.547 738.373 386.455 738.081 386.384C738.378 386.201 738.671 386.012 738.963 385.82ZM739.241 383.871C739.138 384.391 739.051 384.915 738.997 385.435C738.463 385.604 737.934 385.79 737.409 385.983C737.727 385.697 738.031 385.394 738.315 385.072C738.646 384.697 738.957 384.294 739.241 383.871ZM732.004 260.426C735.84 271.11 740.135 281.629 744.931 291.919C748.152 297.941 750.3 304.957 754.757 310.183C754.8 310.225 754.844 310.263 754.888 310.299L754.815 310.302C753.487 310.361 746.272 311.07 749.975 312.698C751.413 318.354 753.297 323.881 754.873 329.499L754.908 329.662C755.484 332.38 756.213 337.854 760.08 336.027C760.5 336.347 761.004 336.572 761.546 336.723C759.807 351.951 750.158 361.864 742.53 374.297C744.235 367.735 743.737 360.883 743.143 354.184L742.996 352.535C739.844 321.817 728.278 291.611 732.004 260.426ZM699.972 358.069C706.189 350.334 736.767 273.754 715.158 320.149C707.477 336.3 701.156 353.591 688.485 366.678C687.609 367.618 688.764 369.269 689.902 368.51C693.992 365.785 697.302 362.169 699.972 358.069ZM722.103 265.511C722.128 265.386 721.969 265.318 721.899 265.424C713.591 281.795 707.659 299.387 698.271 315.262C692.605 325.092 685.805 334.255 678.019 342.517C677.434 343.138 678.314 343.995 678.948 343.444C701.175 322.978 711.982 293.227 722.103 265.511ZM558.28 332.907L558.293 332.91V332.91L558.497 333.437C558.567 333.615 558.637 333.795 558.709 333.976C558.675 333.961 558.641 333.947 558.606 333.933C558.533 333.859 558.46 333.785 558.388 333.707C558.404 333.438 558.37 333.168 558.28 332.907ZM791.088 302.656C792.217 303.098 793.603 303.182 794.851 303.29C793.454 309.857 792.248 316.474 790.984 323.059C790.4 325.08 789.026 325.79 787.124 326.431L785.595 326.919C778.46 329.201 771.284 331.545 763.926 332.944C763.408 332.608 762.674 332.624 762.33 333.163C761.972 333.196 761.605 333.216 761.242 333.25C759.276 326.005 755.912 318.984 751.41 312.973C763.993 313.378 776.666 310.066 788.636 306.363C789.121 306.598 789.759 306.451 789.963 305.896L790.148 305.843C792.157 305.248 794.822 303.786 790.599 304.529C790.854 303.935 790.995 303.297 791.088 302.656ZM501.766 297.295C510.106 295.919 516.48 302.663 523.598 305.759C527.86 307.583 539.217 313.242 543.346 311.36C549.006 316.798 553.786 323.151 557.127 330.28C556.216 330.226 555.305 330.186 554.394 330.157C552.744 329.628 550.982 329.601 549.268 330.11C532.105 330.298 514.93 333.627 497.835 329.408L497.442 329.335C493.93 328.67 481.941 326.141 481.259 323.663C481.438 322.584 484.662 323.723 485.281 323.846C490.208 324.814 495.214 325.276 500.207 325.761C501.595 325.895 501.578 323.74 500.207 323.603C494.197 323.006 488.503 320.754 482.989 318.412C482.403 318.153 480.85 317.615 479.776 316.918C484.871 317.783 490.121 317.933 495.276 317.749C497.05 317.52 497.176 314.83 495.276 314.883C491.796 315.267 488.471 313.552 485.63 311.742L485.011 311.342C480.276 308.261 480.606 308.127 486.591 309.273C495.386 310.871 504.286 310.811 513.167 310.202C514.435 310.18 515.31 308.478 514.261 307.566C510.172 304.042 505.788 300.899 501.766 297.295ZM542.08 310.13L542.177 310.221C542.381 310.417 542.548 310.59 542.642 310.682L542.68 310.718C542.806 310.836 542.927 310.958 543.052 311.077C542.507 311.26 541.905 311.27 541.285 311.174C541.659 310.94 541.937 310.559 542.08 310.13ZM698.772 281.946L698.792 281.921L698.745 281.971C693.38 287.765 687.942 297.161 683.498 304.571C682.912 310.644 696.053 285.446 698.772 281.946ZM563.767 304.337C563.715 304.402 563.665 304.468 563.617 304.536L563.545 304.638L563.43 304.567C563.387 304.542 563.343 304.526 563.297 304.514C563.454 304.457 563.611 304.396 563.767 304.337ZM588.314 284.558C583.487 285.315 593.358 291.3 594.66 292.158C595.495 292.474 603.427 299.01 602.946 296.888C599.232 292.13 594.108 286.585 588.314 284.558ZM777.148 272.015C775.363 269.145 765.646 272.923 762.574 273.376C760.848 273.83 759.14 274.369 757.395 274.751C756.031 275.244 749.673 274.766 752.006 277.456C754.441 278.762 757.62 277.753 760.114 277.059C765.075 275.707 770.054 274.129 775.135 273.378C775.287 273.302 775.296 273.353 775.163 273.533C774.07 275.956 771.771 278.23 769.183 279.011C769.004 279.063 769.079 279.336 769.26 279.29L769.434 279.253C772.346 278.605 778.636 275.529 777.148 272.015Z" fill="black"/>
<path fill-rule="evenodd" clip-rule="evenodd" d="M603.592 109.782C603.686 104.472 603.79 99.0565 604.58 93.7987C605.351 88.6584 607.474 84.0121 611.122 80.2794C618.87 72.3507 630.1 70.4141 640.554 68.6394L658.428 65.6049C663.881 64.6794 669.698 63.2 675.207 64.5125C677.922 65.1593 680.228 66.662 682.335 68.4398C684.366 70.1534 686.549 71.9935 687.925 74.2989C689.304 76.6076 689.778 79.3065 690.226 81.9176C690.732 84.8615 691.124 87.8284 691.403 90.8024C691.962 96.7608 692.039 102.764 691.633 108.735C691.437 111.631 691.124 114.519 690.725 117.394C690.527 118.819 690.304 120.241 690.051 121.658C689.976 122.076 689.92 122.539 689.844 123.006C690.407 124.61 690.728 126.27 690.702 127.924C690.626 132.795 686.515 135.862 682.37 137.508C679.967 138.463 677.455 139.112 675.094 140.178C672.61 141.3 670.919 143.119 669.221 145.193C665.982 149.15 662.327 152.706 658.153 155.673C649.305 161.963 638.097 164.938 627.361 162.68C624.785 162.138 622.186 161.297 619.87 160.029C617.425 158.691 615.587 156.751 614.043 154.458C611.177 150.201 609.121 145.408 607.566 140.53C605.98 135.554 604.854 130.569 604.24 125.381C603.628 120.209 603.499 114.985 603.592 109.782V109.782Z" fill="#D08B5B"/>
<path fill-rule="evenodd" clip-rule="evenodd" d="M660.628 47.1094C653.231 46.0919 643.023 49.3989 639.339 56.0669C621.753 51.9207 599.573 51.7849 585.078 65.5876C569.954 81.9607 588.951 103.549 601.547 108.416C600.63 112.873 602.06 141.43 612.179 154.167C620.209 164.96 638.909 169.941 647.562 157.05L647.629 156.943C648.556 155.455 647.758 155.503 646.806 156.61C638.333 164.062 626.812 164.189 617.934 156.325C601.296 141.95 603.012 106.704 610.929 86.3142C633.474 83.8379 657.612 90.6716 673.183 107.644L672.13 113.983C671.951 115.063 671.747 116.142 671.591 117.226C671.492 117.921 671.481 118.611 671.962 119.173C673.55 121.029 676.228 118.241 678.431 117.131C679.081 117.04 679.732 117.005 680.371 117.05C690.955 118.413 688.869 138.945 677.238 135.346C676.26 134.737 675.421 134.923 675.041 135.807C672.269 138.346 670.441 142.876 665.834 147.239C664.209 148.876 662.73 150.245 660.902 151.558C659.828 152.644 656.588 153.751 657.615 155.609C659.557 159.838 671.011 146.555 673.036 142.881C679.381 145.387 686.413 144.536 692.988 143.923C727.676 142.12 723.045 105.552 694.612 82.4642C689.26 78.5236 683.355 75.3091 677.217 72.8354C676.379 72.4976 676.745 71.1216 677.595 71.464C681.656 73.1011 685.616 75.0495 689.39 77.3047L689.396 75.9564C689.401 73.6856 689.366 71.3214 688.971 69.2466C688.774 67.8089 688.443 66.2733 687.932 65.1181C687.301 61.5765 677.415 49.4197 660.628 47.1094ZM680.834 121.763C680.299 121.255 679.299 121.861 678.822 121.846C677.603 122.013 676.444 122.528 675.541 123.164C674.944 123.498 674.526 123.812 674.177 124.1L674.167 124.098C674.17 124.098 674.173 124.1 674.176 124.101L674.143 124.123C673.635 124.485 671.773 126.52 672.949 125.973C673.037 125.859 673.127 125.749 673.217 125.642C673.227 125.657 673.24 125.671 673.256 125.685L673.19 125.783C672.191 127.287 673.917 125.703 674.182 125.282C674.195 125.292 674.209 125.299 674.223 125.306L673.877 125.727C673.829 125.787 673.791 125.835 673.759 125.875L673.686 125.945C672.53 127.082 672.494 128.105 673.837 126.424C673.784 126.504 673.742 126.588 673.736 126.662L673.657 126.763C672.602 128.122 673.46 127.64 673.984 127.059L674.028 127.009L674.019 127.023C673.531 127.774 674.498 127.247 674.669 126.845L674.676 126.827C674.863 126.675 674.977 126.505 675.017 126.462L675.024 126.454C675.931 125.525 677.245 124.739 678.361 124.382C678.523 124.351 678.687 124.326 678.852 124.309C679.524 124.159 680.203 124.056 680.888 124.001C680.972 123.991 681.057 123.929 681.121 123.85C682.158 123.815 681.838 123.39 681.408 123.311L681.4 123.309L681.485 123.302C682.151 123.237 682.606 122.998 681.933 122.852L681.847 122.835C681.858 122.819 681.867 122.802 681.876 122.786C682.452 122.723 682.076 122.162 681.756 122.298C681.891 121.858 681.276 122.077 681.199 122.012C681.14 121.947 681.068 121.89 681.026 121.887C680.84 121.756 680.93 121.768 680.834 121.763ZM677.308 114.638L677.443 114.716C677.552 114.78 677.664 114.823 677.777 114.848C677.618 114.915 677.461 114.989 677.305 115.067C677.307 114.971 677.309 114.876 677.309 114.78L677.308 114.638Z" fill="black"/>
<path fill-rule="evenodd" clip-rule="evenodd" d="M645.621 145.333C643.698 140.838 639.502 137.534 634.67 136.326C631.122 135.441 627.398 135.469 623.781 135.821C621.886 136.003 619.854 136.153 618.068 136.855C616.543 137.455 615.3 138.589 614.366 139.921C613.253 141.498 612.497 143.304 611.965 145.155C611.89 145.418 611.819 145.683 611.753 145.949C611.984 147.345 612.474 148.534 613.77 149.412C615.035 150.269 616.544 150.62 618.048 150.744C618.196 150.674 618.338 150.601 618.469 150.526C620.813 149.187 622.463 146.023 625.421 146.451C628.061 146.833 629.799 150.149 631.369 152.093C636.409 152.679 641.446 151.167 645.546 148.291C645.755 147.307 645.767 146.314 645.621 145.333M608.327 141.923C608.731 140.794 609.238 139.7 609.84 138.67C611.83 135.263 614.885 132.549 618.511 130.997C627.09 127.331 638.19 129.915 645.118 135.927C647.484 137.983 649.877 141.003 650.601 144.251C650.817 144.294 651.021 144.406 651.189 144.564C656.194 141.419 661.348 138.393 665.382 134.034C668.311 130.867 670.348 127.118 671.596 122.999C671.698 122.66 672.246 122.709 672.229 123.085C672.224 123.172 672.22 123.26 672.215 123.348C672.267 123.186 672.514 123.269 672.533 123.426C673.204 128.43 674.043 133.735 673.27 138.765C672.808 141.766 671.442 143.964 669.615 146.336C667.659 148.88 665.444 151.245 663.179 153.514C661.741 154.954 660.24 156.614 658.48 157.67C656.433 158.897 654.111 159.83 651.927 160.776C649.705 161.742 647.449 162.634 645.151 163.407C640.557 164.959 635.809 166.031 630.977 166.501C627.109 166.876 622.688 167.284 618.981 165.832C616.14 164.719 613.846 162.708 612.027 160.287C610.047 157.651 608.481 154.649 607.616 151.482C606.716 148.193 608.138 142.453 608.327 141.923" fill="black"/>
<path fill-rule="evenodd" clip-rule="evenodd" d="M624.409 143.666C626.159 144.172 628.037 144.217 629.82 143.695C631.438 143.221 633.098 142.179 634.289 140.799C635.346 139.574 636.031 138.085 636.004 136.495C636.001 136.313 635.936 136.162 635.836 136.044C635.728 135.918 635.578 135.831 635.417 135.793C635.251 135.754 635.076 135.768 634.927 135.835C634.792 135.897 634.676 136.001 634.603 136.153C634.42 136.393 634.238 136.629 634.055 136.859C632.584 138.671 631.16 140.026 628.948 140.512C627.748 140.776 626.549 140.659 625.449 140.256C624.272 139.826 623.208 139.069 622.374 138.1C621.997 137.662 621.552 137.483 621.117 137.48C620.624 137.477 620.137 137.705 619.769 138.071C619.409 138.43 619.167 138.918 619.145 139.429C619.126 139.877 619.272 140.345 619.662 140.762C620.946 142.138 622.609 143.146 624.409 143.666ZM624.463 120.963C622.67 122.051 619.937 124.587 621.867 127.284C624.138 129.662 627.407 126.936 629.018 125.703C630.512 124.747 632.191 127.205 630.805 128.321C619.162 136.923 614.437 121.247 623.556 119.684C624.56 119.511 624.933 120.626 624.463 120.963ZM641.24 116.176C641.816 115.808 642.494 115.682 643.245 116.023C643.833 116.289 644.863 117.178 645.579 118.346C646.07 119.145 646.417 120.082 646.345 121.058C646.328 121.285 646.412 121.452 646.545 121.576C646.649 121.674 646.8 121.745 646.978 121.768C647.128 121.787 647.297 121.77 647.434 121.727C647.695 121.646 647.833 121.477 647.885 121.339C648.387 120.009 648.171 118.525 647.608 117.185C646.849 115.378 645.471 113.864 644.567 113.376C643.022 112.541 641.199 112.502 639.651 113.354C638.333 114.078 637.51 115.248 636.69 116.44C636.516 116.693 636.343 116.945 636.165 117.192C635.807 117.687 635.771 118.178 635.91 118.599C636.063 119.066 636.455 119.46 636.945 119.666C637.397 119.856 637.923 119.883 638.388 119.687C638.78 119.522 639.141 119.2 639.369 118.653C639.753 117.732 640.393 116.716 641.24 116.176V116.176ZM611.965 118.225C612.36 118.43 612.669 118.492 613.107 118.361C613.349 118.288 613.588 118.149 613.776 117.962C613.961 117.777 614.095 117.546 614.147 117.291C614.275 116.66 614.621 116.069 615.114 115.684C615.536 115.355 616.068 115.18 616.657 115.279C617.294 115.385 617.901 115.792 618.318 116.273C618.458 116.433 618.567 116.616 618.677 116.797C618.883 117.136 619.083 117.452 619.367 117.701C619.475 117.795 619.637 117.861 619.794 117.861C619.858 117.861 619.922 117.851 619.984 117.831C620.618 117.197 620.74 116.715 620.719 116.238C620.698 115.737 620.5 115.23 620.18 114.757C619.43 113.647 618.006 112.738 617.046 112.531C615.73 112.249 614.423 112.588 613.375 113.321C612.297 114.076 611.499 115.248 611.25 116.568C611.19 116.886 611.215 117.229 611.336 117.527C611.455 117.818 611.662 118.067 611.965 118.225ZM638.338 104.345C639.127 105.113 640.062 105.232 641.007 105.337C641.533 105.397 641.952 105.445 642.365 105.538C643.499 105.793 644.62 106.178 645.643 106.732C646.713 107.312 647.878 108.01 648.716 108.906C648.916 109.119 649.104 109.342 649.292 109.566C649.463 109.77 649.629 109.967 649.803 110.157C650.003 110.375 650.193 110.603 650.382 110.831C650.499 111.023 650.522 111.07 650.545 111.119C650.581 111.193 650.622 111.276 650.669 111.364C650.734 111.486 650.809 111.619 650.888 111.74C651.02 111.96 651.09 112.021 651.151 112.048C651.252 112.093 651.348 112.115 651.441 112.103C651.529 112.092 651.611 112.05 651.692 111.981C652.097 111.64 652.217 111.079 652.205 110.483C652.186 109.579 651.852 108.579 651.544 107.964C650.828 106.535 649.836 105.049 648.642 103.983C647.28 102.765 645.789 101.843 644.077 101.208C643.014 100.813 641.782 100.451 640.623 100.497C639.789 100.53 638.992 100.777 638.335 101.395C637.931 101.775 637.737 102.314 637.737 102.853C637.737 103.403 637.938 103.957 638.338 104.345ZM610.359 111.376C610.409 111.458 610.479 111.515 610.556 111.549C610.637 111.584 610.728 111.594 610.815 111.58C610.901 111.565 610.983 111.526 611.049 111.466C611.111 111.409 611.159 111.333 611.18 111.24C611.704 108.942 612.722 107.232 614.895 106.13C615.964 105.587 617.193 105.243 618.356 104.968C618.694 104.888 619.052 104.837 619.411 104.784C620.539 104.62 621.675 104.432 622.41 103.522C622.853 102.974 623.039 102.273 622.933 101.633C622.835 101.029 622.481 100.476 621.839 100.144C620.24 99.3194 618.253 100.129 616.639 100.819C616.519 100.87 616.401 100.92 616.286 100.968C614.707 101.634 613.267 102.512 612.083 103.767C611.144 104.763 610.274 106.236 609.923 107.751C609.632 109.011 609.7 110.298 610.359 111.376Z" fill="black"/>
<path fill-rule="evenodd" clip-rule="evenodd" d="M91.153 271.17C84.7914 278.609 85.3538 280.678 88.7432 288.188C96.2315 305.615 106.969 323.33 119.158 339.49C118.353 303.235 117.661 266.784 116.471 230.199C109.223 244.335 101.505 257.103 91.153 271.17M89.9527 719.248C85.9484 718.861 57.7663 719.902 65.3085 711.687C62.9804 706.633 69.4845 702.37 73.4924 698.526C77.2423 694.95 80.9379 690.975 84.7885 686.377C88.3744 682.114 92.4167 677.075 95.03 671.195C95.6086 670.274 96.1961 669.628 96.778 669.276L97.1135 669.073L97.3225 668.74C99.5281 665.221 101.349 661.585 103.353 658C98.4518 656.229 93.9984 654.451 88.4466 651.994C96.2804 605.872 108.021 560.936 115.613 514.677C120.233 474.423 122.714 433.791 133.287 394.147L134.64 394.251L135.394 391.653C134.283 391.624 132.033 391.549 130.92 391.506L131.18 392.835C126.14 392.251 121.201 390.815 116.301 389.597C113.8 389.255 111.293 387.467 112.192 384.487C112.482 380.164 113.377 375.946 113.798 371.624C112.203 370.535 110.558 369.293 108.982 368.019C104.815 369.984 99.7786 376.327 95.2222 374.713C84.5739 360.424 75.6374 343.246 67.5504 329.523C48.0181 297.788 41.8186 277.95 61.9637 244.859C79.3804 217.137 98.1677 173.076 133.083 166.119C137.003 165.387 141.111 165.356 144.878 163.571C145.071 161.01 146.351 159.54 147.287 159.519C149.563 159.019 152.061 158.216 154.282 158.195C155.066 157.868 156.022 158.137 156.774 158.285C159.013 153.791 158.813 148.055 161.267 143.842C161.356 140.651 162.329 137.125 172.167 136.483C178.864 135.924 188.349 135.386 193.703 138.311C197.448 141.326 197.487 148.081 197.017 152.84C196.501 156.335 196.732 160.4 199.47 164.505C207.273 162.097 212.714 167.187 217.598 176.684C238.045 179.467 242.454 181.048 250.388 201.297C254.171 210.079 258.11 219.461 261.059 229.074C265.009 240.826 265.356 253.128 269.196 264.964C279.625 291.048 290.23 307.882 293.569 338.249C295.199 351.657 294.263 358.306 292.713 360.32C288.306 359.046 282.62 358.07 277.992 357.527L282.945 361.294C278.748 380.32 290.836 434.578 258.061 430.41C257.77 429.702 258.304 425.807 258.445 424.191C257.549 424.253 255.892 424.312 255.01 424.201C253.447 428.71 251.1 432.762 249.619 437.349C248.886 440.143 247.96 442.956 247.055 445.674C226.415 515.174 222.328 582.082 231.538 651.855L231.122 652.006L230.954 652.306L230.701 652.401C230.05 653.268 229.129 653.306 227.659 653.308C218.631 653.625 210.699 654.033 203.343 654.237C204.123 658.143 203.623 662.255 203.279 666.227C207.561 665.927 211.489 667.664 215.402 669.75C222.88 673.42 230.327 677.275 237.567 681.49C244.755 686.089 256.38 690.022 250.609 698.287L252.277 698.942C252.333 698.964 252.369 698.984 252.39 698.997C252.587 699.699 250.327 702.605 249.657 702.574C233.85 703.311 220.369 699.621 200.149 695.754C195.52 694.075 172.203 691.22 172.106 686.812C172.18 685.438 173.6 685.531 174.591 685.359C171.62 670.362 181.662 669.151 183.099 655.542C181.111 655.921 178.962 656.245 176.925 655.686C175.139 626.645 178.009 596.916 174.835 567.59L171.608 567.233C160.76 599.143 149.512 631.794 140.873 664.94C140.708 665.66 139.901 665.168 139.532 664.904C133.886 664.771 128.238 664.168 122.701 663.217C122.568 666.477 122.428 669.798 122.291 673.055L123.144 673.513C123.695 674.279 123.463 677.864 123.363 679.407C123.263 680.985 123.18 682.126 123.319 683.196C125.1 686.706 119.011 694.313 115.791 698.543C108.775 707.622 102.962 721.068 89.9527 719.248" fill="#D08B5B"/>
<path fill-rule="evenodd" clip-rule="evenodd" d="M229.845 315.552C229.845 315.552 260.319 362.025 257.913 387.748C257.771 389.272 255.314 412.892 255.301 414.53C255.218 425.139 259.674 415.677 256.488 424.248C253.887 431.247 236.101 472.77 229.89 533.272C226.396 567.299 231.077 652.962 231.077 652.962L177.642 656.281L172.892 564.321C172.195 565.44 139.881 663.628 139.881 663.628L114.707 661.021L88.8208 651.066C88.8208 651.066 101.745 597.1 114.707 522.133C120.844 486.64 130.236 389.095 130.236 389.095C129.805 382.945 187.616 384.43 187.616 384.43C187.616 384.43 167.87 321.731 182.154 313.09C191.205 307.615 229.845 315.552 229.845 315.552Z" fill="#9DDADB"/>
<path fill-rule="evenodd" clip-rule="evenodd" d="M123.824 686.298L123.547 686.721C123.193 687.267 122.871 687.781 122.554 688.309L122.369 688.621L121.743 689.554L121.336 690.167C120.766 691.031 120.155 691.972 119.334 693.248L117.074 696.765L116.128 698.227C113.755 701.877 112.216 704.108 110.411 706.477L109.944 707.084L109.701 707.388L109.459 707.685C105.179 712.908 100.553 716.468 95.3083 717.969L95.1332 718.018L94.9696 718.064L94.8004 718.077C87.4725 718.667 80.1421 718.037 70.2016 716.295L69.5636 716.183L68.7922 716.044L67.1127 715.738L66.7191 715.342C64.4196 713.033 64.1039 710.371 65.5153 707.717C66.4398 705.978 67.8599 704.475 70.4082 702.26L72.3964 700.542C74.2277 698.952 74.5312 698.64 74.9848 698.018L75.1713 697.759L75.2592 697.668C83.487 689.087 90.3599 680.822 95.6645 671.091L95.8704 670.712L96.1806 670.138L96.7894 669.9C101.774 667.954 107.356 668.173 112.029 670.548L112.183 670.628L112.331 670.707L112.485 670.791C113.271 671.229 113.93 671.704 115.073 672.606L115.713 673.112L116.014 673.346C117.007 674.111 117.582 674.478 118.279 674.784C119.629 675.376 121.232 675.277 121.773 674.696L121.803 674.663L121.828 674.63L122.545 672.634L123.824 686.298ZM180.266 667.288C180.501 668.021 179.602 670.923 180.255 671.923C180.843 672.824 182.912 672.577 184.348 672.561L184.64 672.556L184.939 672.548C185.407 672.532 185.903 672.504 186.551 672.458L188.453 672.318L188.612 672.309C188.663 672.306 188.713 672.303 188.766 672.3L189.064 672.286L189.251 672.279L189.322 672.274C191.673 672.089 193.607 670.806 197.382 669.321L199.14 668.624C200.902 667.929 201.892 667.569 203.084 667.203L203.257 667.15L203.348 667.133C206.709 666.479 210.91 667.746 216.616 670.591L216.977 670.772L217.365 670.969C218.276 671.435 219.236 671.943 220.315 672.531L221.987 673.45C223.149 674.092 224.588 674.888 225.094 675.164L225.577 675.426L226.016 675.662C227.11 676.247 227.983 676.687 228.742 677.034L228.992 677.146L229.052 677.179C235.589 680.719 241.594 684.217 247.232 687.798L247.675 688.08L247.825 688.161C254.611 691.925 254.704 698.001 248.314 702.225L248.118 702.352L247.914 702.481L247.422 702.788L246.843 702.746C236.976 702.037 226.774 700.585 215.568 698.39L214.468 698.173C206.076 696.504 197.795 694.585 186.05 691.659L183.73 691.08L179.951 690.13L179.853 690.121C175.73 689.695 173.446 686.604 173.449 682.34L173.451 682.099L173.451 681.897C173.446 677.423 175.394 673.297 177.054 669.956L177.14 669.784L177.228 669.613L180.266 667.288Z" fill="white"/>
<path fill-rule="evenodd" clip-rule="evenodd" d="M129.622 391.885C130.63 391.93 131.542 391.971 132.302 392.023L132.637 392.046L132.649 392.139L133.056 392.151C150.313 392.649 167.638 392.069 184.767 389.844L185.834 389.704C186.362 389.635 186.896 389.571 187.431 389.506C189.456 389.261 191.509 389.012 193.467 388.539C194.733 388.361 195.474 387.695 195.891 386.813C196.411 385.715 196.395 384.239 196.238 382.972L196.216 382.798C194.216 340.677 183.886 299.94 173.555 259.212L173.547 259.181C165.099 225.879 156.653 192.582 152.78 158.536L151.751 158.795L150.049 159.219C148.39 159.64 147.216 160.02 146.371 160.699C145.603 161.315 145.084 162.17 144.75 163.545C144.554 164.391 144.432 165.445 144.359 166.777C143.611 171.738 143.519 168.873 143.692 165.428C143.704 165.186 143.707 164.937 143.702 164.681C143.486 164.781 143.267 164.875 143.044 164.963C140.857 165.821 138.52 165.948 136.185 166.075L136.11 166.079C134.695 166.156 133.281 166.234 131.892 166.461C124.814 167.701 118.578 171.716 113.025 176.113L112.657 176.405C91.4483 195.115 77.3801 220.538 63.7902 245.117C63.1165 246.335 62.4439 247.551 61.7717 248.765L60.9045 250.328C50.9552 267.5 46.2004 288.48 56.1689 306.735C67.6681 329.977 81.0065 352.38 95.1316 374.16C95.7685 374.987 96.5208 375.216 97.314 375.126C98.2706 375.019 99.3144 374.377 100.276 373.763L100.292 373.752C100.641 373.53 100.978 373.314 101.313 373.132C110.743 367.469 118.92 359.766 125.209 350.758C125.276 350.663 125.342 350.567 125.408 350.471C125.339 350.378 125.266 350.287 125.193 350.195L125.191 350.192C108.847 329.717 93.636 307.353 85.1536 282.444C84.7465 278.515 88.3187 274.208 91.599 270.252C91.6791 270.156 91.759 270.059 91.8387 269.963C93.473 267.991 95.0296 266.109 96.0365 264.408C102.731 255.183 108.997 245.643 115 235.923C115.155 235.63 115.31 235.338 115.464 235.044L115.541 234.898C115.53 234.85 115.521 234.801 115.513 234.752C115.458 234.399 115.494 234.035 115.641 233.754C115.742 233.562 115.9 233.412 116.13 233.371C116.204 233.358 116.274 233.358 116.341 233.369L116.358 233.337L116.371 233.724L117.332 232.12L118 231.014C118.119 230.818 118.235 230.627 118.348 230.443C118.14 230.871 117.916 231.332 117.675 231.826L117.457 232.276L116.998 233.216C118.562 256.414 118.92 279.91 119.278 303.375L119.278 303.388C119.461 315.437 119.645 327.478 119.991 339.466L119.995 339.615C120.026 339.657 120.056 339.698 120.087 339.738C122.848 343.39 125.69 346.982 128.599 350.516L128.876 350.853C128.943 350.806 129.011 350.76 129.078 350.714C129.13 350.677 129.183 350.641 129.235 350.605C138.592 344.161 149.599 339.958 160.904 338.656L161.335 338.613L162.55 338.488C165.351 338.206 168.914 337.91 171.478 338.919C172.352 339.262 173.106 339.761 173.653 340.482C174.137 341.12 174.456 341.93 174.566 342.948C174.379 344.632 173.369 345.661 171.91 346.328C169.752 347.315 166.654 347.547 163.539 347.779L163.391 347.791C159.231 348.102 155.087 348.459 152.889 350.344C152.703 350.503 152.525 350.679 152.356 350.868C152.577 350.962 152.799 351.053 153.021 351.143C156.148 352.402 159.444 353.326 162.749 354.251L162.821 354.271C168.301 355.805 173.803 357.345 178.587 360.508C179.985 361.323 182.214 363.194 182.791 364.934C182.959 365.441 182.979 365.938 182.718 366.374C182.475 366.78 182.011 367.119 181.296 367.393C180.123 367.481 178.929 367.242 177.74 367.003L177.67 366.989C176.842 366.823 176.016 366.659 175.2 366.589L175.008 367.511C177.222 368.256 179.265 369.511 180.593 371.537C181.088 372.276 181.512 373.445 181.38 374.413C181.335 374.738 181.225 375.04 181.013 375.279C180.832 375.483 180.579 375.636 180.246 375.731C176.668 375.823 173.1 375.053 169.554 374.288L169.496 374.276C167.84 373.918 166.19 373.563 164.545 373.292C163.311 373.089 162.058 372.93 160.799 372.783L164.754 374.387L164.984 374.482C167.136 375.372 169.927 376.627 170.82 378.341C171.096 378.872 171.163 379.45 170.918 380.076C170.675 380.696 170.148 381.349 169.284 382.051C165.874 383.787 161.98 382.215 158.29 380.726L158.045 380.627C156.352 379.945 154.699 379.28 153.147 378.915C147.584 377.621 142.599 378.247 137.708 378.868L137.636 378.878C130.465 379.789 123.491 380.676 115.122 375.045C114.893 374.891 114.67 374.736 114.451 374.581C114.431 374.852 114.409 375.123 114.383 375.393C114.249 376.812 114.014 378.245 113.778 379.682L113.775 379.698C113.309 382.536 112.845 385.39 113.105 388.193C113.111 388.251 113.117 388.309 113.123 388.367C113.166 388.411 113.209 388.454 113.254 388.495C116.16 391.213 124.214 391.641 129.613 391.884L129.622 391.885ZM292.265 359.247C292.423 357.876 292.544 356.5 292.631 355.122C294.052 330.001 285.248 305.6 274.951 283.047C268.831 271.175 265.048 258.503 263.46 245.227C260.521 228.727 254.111 213.136 247.544 197.785L246.513 195.381C244.508 189.859 241.452 186.239 237.617 183.792C232.961 180.822 227.142 179.589 220.622 178.81C220.3 178.772 219.98 178.735 219.661 178.7C219.826 178.974 215.439 175.556 211.711 169.995C208.286 165.608 207.553 165.562 205.012 165.402L204.917 165.396L204.912 165.395C204.012 165.338 202.868 165.266 201.268 164.971C200.876 164.899 200.514 164.824 200.179 164.748C200.374 165.071 200.577 165.389 200.787 165.701C201.409 166.627 202.1 167.509 202.846 168.343C202.863 168.362 202.959 168.447 203.116 168.587C204.371 169.696 209.518 174.248 209.562 176.282C227.139 233.57 227.921 294.414 227.617 353.893L227.597 357.55C227.876 362.512 227.209 367.419 226.543 372.32L226.537 372.365C225.913 376.958 225.291 381.547 225.424 386.171C225.428 386.304 225.433 386.436 225.438 386.569C225.569 386.589 225.7 386.608 225.831 386.627C235.703 388.047 245.717 388.169 255.629 387.117C255.725 387.107 255.822 387.097 255.919 387.086C255.93 387.058 256.111 386.867 256.364 386.601C256.921 386.017 257.824 385.068 258.015 384.687C269.358 367.676 268.402 357.583 268.403 357.583L268.403 357.585C268.561 357.566 268.721 357.547 268.88 357.528C276.528 356.641 284.262 357.733 291.674 359.652C291.849 359.697 292.025 359.743 292.2 359.79C292.213 359.686 292.226 359.582 292.238 359.478C292.247 359.401 292.256 359.324 292.265 359.247Z" fill="#E86BBB"/>
<path fill-rule="evenodd" clip-rule="evenodd" d="M159.609 143.943C161.52 142.65 158.799 153.875 158.794 154.955L158.746 155.19C158.27 157.477 157.431 160.137 155.5 161.603C156.391 168.88 157.499 176.134 158.863 183.335L159.665 183.44C171.568 185.015 183.55 187.181 195.652 186.053C202.173 186.104 206.49 181.649 209.118 176.122C208.94 175.471 208.762 174.821 208.579 174.17C200.298 169.105 194.028 158.828 197.759 149.127C197.918 148.712 198.412 148.684 198.666 148.9C198.707 148.903 198.745 148.937 198.742 148.982L198.61 151.034C198.357 155.115 198.272 159.333 200.483 163.004C209.493 160.952 215.095 168.454 218.862 175.554L221.569 175.954C231.922 177.489 241.907 179.308 247.019 189.9L247.72 191.387C254.863 206.608 261.521 222.259 265.417 238.648C267.379 247.368 268.089 256.353 270.967 264.857C276.942 280.648 285.363 295.488 289.929 311.837C292.762 317.736 300.734 362.139 292.869 362.476C290.04 361.63 287.16 360.945 284.248 360.459C284.697 360.801 284.861 361.381 284.775 361.974C283.759 369.091 283.683 376.301 283.687 383.478C284.225 400.86 283.743 438.254 257.53 432.252C255.617 431.549 256.859 428.484 256.782 426.344C256.633 426.351 256.481 426.348 256.329 426.339C254.824 430.394 252.714 434.136 251.391 438.258C250.27 441.799 249.487 445.608 247.924 448.999C231.374 507.776 224.542 569.597 231.012 630.433C231.376 634.075 231.784 637.714 232.241 641.345C232.176 643.671 234.89 653.033 232.459 653.759C232.364 653.943 232.038 654.154 231.844 654.219C230.375 655.802 227.933 655.215 225.994 655.425C219.143 655.73 212.292 656.011 205.437 656.238C205.848 659.143 205.516 662.091 205.273 664.991C210.272 665.032 214.866 668.071 219.288 670.134C225.854 673.369 232.314 676.827 238.65 680.494C244.501 684.583 257.572 688.531 253.075 697.803C256.428 699.162 251.768 704.845 249.221 704.909C232.636 704.826 216.156 701.068 199.949 697.77C190.74 695.34 180.691 694.417 172.172 690.225C169.753 689.133 170.26 684.779 172.92 684.374C170.945 669.857 178.96 670.056 181.218 657.962C179.906 658.176 178.456 658.055 177.14 657.788C174.093 660.603 175.213 638.45 174.798 636.287C174.716 613.571 175.795 590.808 173.371 568.17L169.253 580.279C159.653 608.538 150.197 636.871 142.671 665.762C142.22 667.506 140.386 667.715 139.216 666.954C134.273 666.809 129.35 666.345 124.474 665.558C124.38 667.868 124.282 670.179 124.185 672.49C126.288 673.621 124.864 680.753 125.133 683.165C127.422 688.377 118.152 698.526 115.148 702.804C109.74 710.35 104.368 720.911 93.9077 721.262L93.5892 721.27C85.781 721.46 77.9026 721.003 70.1701 719.89L69.2291 719.736C67.0241 719.368 64.583 718.83 63.3138 716.87C62.2264 715.192 62.3594 713.026 63.6796 711.744C61.9359 705.424 68.7234 701.597 72.5144 697.748C79.5961 690.924 86.0328 683.419 91.599 675.313L91.9188 674.556C92.9505 672.125 94.1832 669.426 96.104 668.262C97.9355 665.357 99.5017 662.299 101.156 659.296C96.6383 657.639 92.1904 655.788 87.7919 653.84C86.9166 653.45 86.6381 652.314 86.7911 651.468L86.8022 651.411C95.3891 606.867 105.684 562.641 113.691 517.996C118.806 476.85 120.902 435.181 131.654 394.94C126.438 394.398 121.246 392.901 116.127 391.621C112.023 390.749 109.948 388.666 110.757 384.324C111.036 380.465 111.809 376.668 112.227 372.824C111.135 372.061 110.068 371.258 109.031 370.433C107.107 371.867 105.121 373.217 103.082 374.478C98.197 377.992 94.4266 378.54 91.4091 372.779C82.6694 358.987 74.2412 344.993 66.2872 330.734C58.9091 317.054 49.7653 303.404 47.8924 287.654C45.172 259.31 78.4626 213.951 95.1398 190.916C104.337 179.821 115.537 168.401 130.103 165.175C134.584 164.512 139.307 164.421 143.578 162.798C143.925 160.724 144.9 158.814 147.103 158.306C149.419 157.794 151.903 157.003 154.237 156.946C154.764 156.797 155.387 156.703 155.944 156.806C157.541 152.662 157.776 147.993 159.609 143.943ZM70.3768 715.019C70.776 715.216 71.189 715.387 71.6119 715.538C72.132 715.609 72.6498 715.676 73.1673 715.735C72.2292 715.524 71.2982 715.287 70.3768 715.019ZM122.207 674.737C114.556 677.512 112.453 664.486 97.4057 669.757C91.525 680.666 83.9115 690.573 75.2094 699.381C72.1164 703.222 62.9614 707.585 67.895 713.218L68.6506 713.356C77.2184 714.913 85.9153 716.15 94.6458 715.446C101.243 713.628 106.191 708.344 110.19 703.017C113.083 697.894 116.467 693.072 119.922 688.318C121.821 685.954 122.014 682.945 122.005 680.036C122.069 678.268 122.135 676.503 122.207 674.737ZM208.151 668.342C204.903 667.152 201.571 668.272 198.616 669.732C193.569 671.988 182.637 674.692 177.967 671.094C175.677 674.878 174.909 679.085 175.537 683.449L175.542 683.653C175.591 685.446 175.817 686.9 177.988 687.026L184.075 688.556C204.608 693.706 225.344 698.686 246.48 700.119C252.121 696.599 252.279 691.973 246.283 688.751L244.749 687.812C232.977 680.616 220.93 673.543 208.151 668.342ZM252.823 698.272C252.766 698.369 252.712 698.467 252.655 698.561C252.743 698.604 252.823 698.666 252.899 698.732C252.899 698.573 252.876 698.417 252.823 698.272ZM102.296 659.708C102.374 661.308 101.588 663.114 101.034 664.55C100.709 665.399 100.374 666.61 99.8563 667.582C112.721 663.789 116.637 674.901 121.275 672.59L121.416 672.516V672.514C120.469 670.353 121.501 667.31 122.138 665.155C115.382 663.934 108.749 662.034 102.296 659.708ZM203.953 656.288L200.244 656.402C194.474 656.577 188.704 656.73 182.93 656.722C183.535 660.868 182.352 667.707 179.667 670.928C179.662 670.931 179.658 670.931 179.655 670.933C187.255 672.083 194.453 668.604 201.222 665.678C201.507 662.501 202.755 659.259 203.953 656.288ZM179.135 668.918C178.905 669.35 178.672 669.781 178.439 670.213C178.542 670.324 178.656 670.426 178.777 670.514C178.706 669.975 178.898 669.443 179.135 668.918ZM189.818 316.307C194.054 337.698 197.398 359.355 198.56 381.167L198.57 381.383C198.683 383.59 199.012 386.051 197.536 387.893C196.004 389.806 193.617 390.048 191.354 390.396C172.371 393.282 153.121 394.257 133.932 393.676C126.848 428.716 122.515 464.191 119.873 499.821C114.131 550.732 101.099 600.499 91.3376 650.728C106.475 657.345 122.176 662.041 138.767 662.692C162.25 575.964 206.216 484.434 208.558 397.675C208.683 397.535 208.985 397.568 209.019 397.779C209.793 402.526 209.463 407.48 209.292 412.265C208.642 426.99 207.002 441.708 204.585 456.24C198.446 492.33 187.109 527.247 175.494 561.887C175.105 563.442 175.694 565.172 175.713 566.76C178.139 593.25 178.387 619.877 179.169 646.45C179.004 649.387 179.929 652.714 178.909 655.473C187.682 654.298 196.497 653.664 205.314 652.93L205.379 652.887C205.744 652.655 206.327 652.411 206.663 652.823C214.111 652.238 221.567 651.702 229.02 651.202C218.451 575.581 225.756 496.752 254.35 425.711C252.539 424.053 253.329 420.359 252.914 418.05C252.532 408.629 252.552 398.992 254.405 389.716L253.934 389.744C248.241 390.069 223.19 391.073 222.503 386.824C221.551 379.626 223.852 372.49 224.322 365.344C225.167 349.198 224.963 332.988 224.852 316.821C219.894 317.484 215.141 316.574 210.239 316.387C203.424 316.328 196.623 316.502 189.818 316.307ZM101.466 659.412C101.338 659.969 101.189 660.526 101.03 661.083C101.25 660.585 101.497 660.107 101.792 659.686L101.882 659.561L101.466 659.412ZM182.531 656.724L182.125 656.729V656.729L182.123 656.961V656.961C182.218 657.12 182.234 657.314 182.116 657.471C182.102 658.187 182.071 658.905 182.016 659.623C182.173 658.656 182.33 657.689 182.531 656.724ZM177.371 656.487L177.392 656.847V656.847C177.912 656.828 178.437 656.85 178.955 656.824C179.228 656.81 179.508 656.762 179.791 656.712C178.976 656.687 178.164 656.622 177.371 656.487ZM269.799 359.44C269.542 359.741 269.262 359.924 268.977 360.016C268.98 366.859 267.598 373.587 263.81 379.513C262.234 381.601 261.344 383.978 260.582 386.455C256.577 397.792 255.833 409.97 257.293 421.842C261.229 416.073 262.793 409.188 263.893 402.398C263.952 402.057 264.517 402.062 264.579 402.398C265.909 409.665 263.623 416.802 260.889 423.518C259.181 424.738 259.588 427.933 259.383 429.813C288.402 434.039 278.31 378.364 282.028 361.218C282.096 360.746 282.498 360.403 282.954 360.258C278.601 359.594 274.191 359.546 269.799 359.44ZM133.143 393.643C133.179 393.825 133.21 394.008 133.233 394.19C133.286 394.013 133.338 393.833 133.39 393.653C133.309 393.65 133.226 393.648 133.143 393.643ZM152.755 158.147L152.247 158.28C146.885 159.663 145.149 159.473 144.846 165.943C143.528 174.723 138.662 182.382 136.475 190.872C135.6 193.87 136.526 199.396 140.674 198.584C142.018 198.172 143.065 199.982 142.049 200.942C139.045 203.781 136.128 206.708 133.195 209.617C144.973 249.34 160.272 288.031 178.909 325.048C179.648 326.517 177.432 327.809 176.699 326.339C158.171 289.204 142.761 250.526 130.801 210.792L130.44 209.588C129.912 208.126 136.666 202.883 137.895 201.172C125.563 195.234 142.78 174.44 143.248 164.426C139.718 165.977 135.717 165.42 131.989 166.045C124.836 167.298 118.557 171.427 112.977 175.885C90.3085 195.886 75.8226 223.578 61.3322 249.679C51.4638 266.708 46.7062 287.527 56.6093 305.642C68.0999 328.868 81.4295 351.255 95.5221 372.988C97.0696 374.999 99.4514 372.687 101.082 371.843C110.455 366.215 118.582 358.557 124.833 349.604C109.679 331.024 96.4795 310.719 87.1442 288.595L87.0155 288.339C84.9209 284.132 83.2647 279.043 86.7588 275.081C99.1657 259.201 110.2 242.343 120.584 225.091C120.692 224.918 120.931 225.07 120.853 225.25C119.786 227.663 118.663 230.057 117.493 232.429C119.857 267.506 119.458 303.269 120.48 338.569C123.237 342.217 126.075 345.803 128.98 349.332C138.402 342.844 149.485 338.612 160.868 337.301L161.604 337.227C166.439 336.73 174.424 335.793 175.058 342.066C174.274 349.782 158.316 345.444 153.213 349.82C161.577 353.188 171.162 354.137 178.841 359.215C181.304 360.651 186.132 365.226 181.415 366.977C179.357 367.153 177.231 366.354 175.174 366.179C177.489 366.958 179.618 368.278 180.973 370.348C181.949 371.767 182.662 374.713 180.33 375.32C175.013 375.47 169.719 373.738 164.482 372.876L164.947 373.065C168.765 374.627 174.698 377.432 169.557 381.568C164.41 384.23 158.178 379.701 153.052 378.493C139.242 375.282 129.027 384.081 114.871 374.554C114.469 377.738 113.866 380.9 113.624 384.101L113.593 384.282C113.102 387.204 113.522 388.259 116.676 388.818C120.477 389.965 124.459 390.325 128.41 390.538C147.422 391.542 166.56 390.83 185.443 388.396C188.16 387.668 194.543 388.355 195.679 385.367C193.55 308.465 161.483 236.103 152.653 160.2C152.508 159.47 152.498 158.726 152.755 158.147ZM206.354 164.72C204.838 164.782 203.426 165.111 201.917 165.263C202.753 167.038 207.161 169.55 206.76 170.432C207.078 170.678 207.401 170.915 207.729 171.145C207.273 169.543 206.812 167.943 206.35 166.341C223.103 207.137 225.405 255.404 227.631 299.908C228.364 322.348 228.763 344.857 227.678 367.283C227.075 373.239 225.479 379.259 225.913 385.274C235.746 386.689 245.72 386.81 255.593 385.763C255.884 384.997 256.215 384.243 256.589 383.504C271.368 365.491 263.53 342.917 256.414 323.405C252.111 323.587 247.783 323.314 243.476 323.367C244.807 327.485 245.149 331.842 245.858 336.1C246.34 339.134 246.956 342.144 247.663 345.132L247.853 345.929C248.119 347.03 248.473 348.22 248.086 349.313C247.706 350.391 246.394 350.827 245.525 349.988C243.958 348.202 244.126 345.541 243.621 343.326L243.527 342.629C242.665 336.27 241.529 329.674 243.105 323.365C241.558 323.033 237.328 324.252 237.106 322.173C237.171 318.738 234.679 311.296 237.453 309.033C239.103 307.775 241.941 308.173 243.877 308.094C246.114 308.004 248.349 307.921 250.584 307.936C232.624 264.543 237.619 251.186 239.441 208L239.496 206.683C239.491 206.398 239.949 206.327 239.999 206.614C242.745 224.303 239.085 242.213 240.819 259.958C243.898 293.673 265.267 322.621 268.84 356.174C276.544 355.281 284.339 356.377 291.807 358.31C291.964 356.947 292.085 355.579 292.17 354.212C293.588 329.167 284.798 304.843 274.543 282.381C268.396 270.458 264.597 257.732 263.007 244.426C259.92 227.096 252.991 210.771 246.085 194.672C241.72 182.634 232.282 179.796 220.579 178.398C224.526 184.939 228.45 191.495 232.366 198.055C233.24 200.039 230.561 201.456 229.393 202.677C243.769 210.516 235.375 234.721 235.672 248.285C234.605 260.748 234.202 273.282 232.321 285.659C232.183 286.517 230.868 286.266 230.855 285.462C231.029 266.918 233.241 248.448 234.211 229.933L234.329 228.583C235.086 219.817 235.827 207.171 225.284 204.765C223.862 204.533 223.752 202.419 224.894 201.784C226.415 200.937 227.747 199.904 228.939 198.674C224.911 191.917 220.891 185.155 216.906 178.369L216.719 178.054C213.888 173.252 211.259 167.665 206.354 164.72ZM172.144 341.595C170.981 338.171 159.693 340.401 156.681 340.773C145.571 342.871 134.39 347.786 125.928 355.357C125.405 355.824 124.788 355.816 124.301 355.563C120.511 360.404 116.134 364.791 111.334 368.646C112.213 369.338 113.115 370.008 114.044 370.651C114.488 370.698 114.89 370.928 115.07 371.34C128.277 380.908 137.993 373.445 151.712 375.169C156.835 376.201 161.552 379.459 166.831 379.596C170.704 378.715 167.294 377.096 165.484 376.469C161.387 374.514 157.211 372.732 153.026 370.974L149.677 369.57C148.031 368.88 148.597 366.394 150.435 366.828C153.653 367.586 156.88 368.307 160.11 369.016C166.321 370.282 172.681 371.907 178.957 372.523C177.562 368.646 162.758 364.459 158.454 362.917C156.829 362.15 152.193 362.296 152.722 359.777C153.149 357.432 158.082 360.117 159.728 360.308C166.442 362.011 173.296 363.043 180.137 364.081C172.789 356.709 161.397 356.073 152.012 352.621L151.806 352.575C150.133 352.189 147.784 351.462 149.155 349.545C153.977 342.437 172.951 346.035 172.144 341.595ZM158.257 302.018C161.681 299.209 163.514 304.977 163.297 307.658C163.458 309.884 163.632 312.109 163.777 314.335C163.565 316.075 165.42 322.418 162.938 322.476C152.094 321.926 141.267 322.065 130.419 321.412C130.405 323.6 130.298 325.785 130.41 327.975C130.351 330.713 131.302 333.449 130.747 336.156C130.407 337.401 128.714 337.569 128.053 336.507C126.071 331.846 127.434 325.834 128.837 321.121C123.525 320.139 122.792 315.147 124.192 310.692L124.177 310.451C124.1 309.077 124.105 307.603 124.719 306.492C126.36 304.561 129.762 305.816 132.022 305.67C138.949 304.956 146.004 304.759 152.85 303.487C154.622 303.028 156.429 302.104 158.257 302.018ZM115.196 236.942C109.803 247.234 103.598 257.027 96.9924 266.563C95.577 268.599 94.1236 270.609 92.6469 272.604L92.3735 272.954C89.4223 276.701 86.3574 279.809 89.1458 284.782C96.4519 302.523 106.235 319.184 117.568 334.647C116.851 302.078 116.217 269.5 115.196 236.942ZM250.783 308.457C237.233 311.296 236.98 305.98 239.241 321.026C244.676 321.063 250.107 320.94 255.543 321.028C253.99 316.826 252.379 312.643 250.783 308.457ZM159.83 304.207C152.753 306.666 145.239 306.315 137.848 306.618C137.863 308.206 130.3 306.732 128.849 306.95L128.291 306.902C127.091 306.805 125.582 306.79 125.569 308.26C125.954 310.834 124.505 313.652 125.403 316.181C126.614 319.587 131.796 319.236 134.656 319.303C139.37 319.409 144.084 319.523 148.798 319.646C153.033 319.758 157.282 319.968 161.521 319.999C161.138 316.985 161.034 313.894 160.804 310.882C160.514 308.716 160.932 306.148 159.83 304.207ZM189.587 315.16C189.594 315.197 189.601 315.236 189.611 315.276C189.693 315.252 189.787 315.239 189.867 315.216C189.775 315.2 189.68 315.181 189.587 315.16Z" fill="black"/>
<path fill-rule="evenodd" clip-rule="evenodd" d="M227.038 106.667C226.14 91.9247 221.356 75.2105 207.278 67.9722C176.242 55.5154 135.437 86.8851 133.276 118.932C132.523 129.901 138.613 141.888 149.743 144.938C152.217 148.217 155.959 150.219 159.652 151.957C203.644 174.782 232.06 156.228 227.038 106.667V106.667Z" fill="#D08B5B"/>
<path fill-rule="evenodd" clip-rule="evenodd" d="M237.059 97.4965C235.505 93.1782 233.862 88.8931 232.135 84.6411C230.452 80.5029 228.932 76.2753 226.843 72.3332C214.363 48.7886 191.669 48.7886 179.938 51.865C173.855 49.2437 162.46 49.9831 156.125 52.3485C145.87 56.1779 133.37 71.2417 129.096 78.0098C119.659 92.9531 113.77 112.842 120.038 130.11C120.857 132.367 121.902 134.457 123.079 136.471C122.338 137.476 121.485 138.427 120.54 139.362C117.732 142.14 114.924 144.827 112.499 147.96C110.088 151.074 108.09 154.386 106.602 158.037C103.797 164.923 103.662 172.719 107.371 179.289C110.597 185.006 116.312 189.263 122.752 189.669C123.082 189.715 123.413 189.757 123.746 189.791C124.599 191.196 125.639 192.49 126.827 193.618C130.464 197.079 139.136 198.854 144.082 198.968C144.335 199.171 144.591 199.375 144.847 199.577C147.874 201.959 151.049 204.362 154.523 206.057C156.877 207.206 159.962 208.166 162.418 207.336C163.531 208.081 165.359 207.924 166.463 207.315C168.278 206.315 169.755 204.514 170.653 202.67C172.831 198.193 172.307 193.294 171.748 188.511C171.132 183.228 170.539 177.942 169.937 172.66C169.466 168.528 168.973 164.329 167.717 160.349C167.067 158.287 166.216 156.306 165.117 154.443C165.145 154.287 165.14 154.13 165.095 153.983C164.735 152.812 163.991 152.198 163.11 151.402C162.996 151.3 162.882 151.196 162.771 151.089C162.33 150.587 161.858 150.12 161.353 149.724C161.159 149.527 160.967 149.328 160.775 149.129C159.18 147.458 157.673 145.702 156.334 143.82C155.035 141.995 153.862 140.09 152.746 138.148C151.611 136.174 150.86 133.996 149.727 132.036C149.63 131.868 149.383 131.835 149.246 131.974C148.895 132.337 148.67 132.74 148.712 133.164L148.537 133.19C148.471 132.55 147.881 132.029 147.08 132.169C145.88 132.377 144.895 132.456 143.857 132.057C144.039 130.846 144.207 129.633 144.373 128.417C144.677 126.179 144.959 123.935 145.2 121.691C145.786 121.83 146.366 122.032 146.935 122.288C147.746 122.65 148.511 123.139 149.165 123.738C149.81 124.331 150.255 125.13 151.042 125.542C151.947 126.014 153.04 125.234 152.774 124.21C152.236 122.141 149.191 120.956 147.307 120.565C146.66 120.43 145.999 120.373 145.338 120.387C145.487 118.946 145.62 117.505 145.729 116.062C145.781 115.379 145.828 114.696 145.873 114.011C147.338 113.568 148.907 113.435 150.431 113.644C150.933 114.045 151.435 114.44 151.921 114.841C153.464 116.116 155 117.398 156.516 118.704C156.654 118.82 156.789 118.936 156.926 119.055C157.827 119.83 158.95 119.062 158.799 117.965C157.562 108.973 163.069 101.82 169.518 96.2783C176.656 90.1421 189.633 89.4276 198.122 78.7988C202.032 79.5946 210.761 81.9582 214.363 87.6985C219.406 95.7427 218.747 102.95 219.131 112.075C219.515 121.207 220.492 130.732 218.418 139.736C216.505 148.039 211.327 155.133 203.293 158.394C203.094 158.474 202.893 158.553 202.691 158.629C198.537 160.195 194.003 160.638 189.633 159.814C184.796 158.899 180.758 156.685 176.734 153.962C176.502 153.808 176.163 154.125 176.338 154.358C181.642 161.387 192.06 163.736 200.324 161.88C200.71 161.793 201.094 161.698 201.476 161.594C199.627 166.91 199.999 172.745 202.407 177.921C203.855 181.035 206.064 183.73 208.753 185.856C211.718 188.198 215.396 190.089 217.453 193.377C219.337 196.389 218.778 199.773 215.553 201.513C214.74 201.954 214.427 203.378 215.233 204.004C215.541 204.241 215.849 204.483 216.164 204.72C217.97 206.083 222.93 208.642 223.733 208.737C230.867 209.583 235.663 204.345 238.737 198.167C242.347 190.914 241.408 182.076 237.431 175.169C234.242 169.628 227.959 164.167 230.457 157.154C231.348 154.649 233.17 152.514 234.941 150.584C236.96 148.387 239.131 146.33 241.067 144.055C242.991 141.796 244.697 139.338 245.65 136.504C247.041 132.361 246.349 127.881 245.304 123.745C243.065 114.867 240.157 106.107 237.059 97.4965Z" fill="black"/>
<path fill-rule="evenodd" clip-rule="evenodd" d="M197.256 143.848C195.659 143.198 194.235 142.114 193.193 140.729C192.831 140.248 192.737 139.739 192.813 139.274C192.899 138.751 193.209 138.277 193.631 137.96C194.055 137.641 194.586 137.483 195.099 137.564C195.544 137.633 195.988 137.877 196.339 138.382L196.412 138.483C197.031 139.319 197.838 140.004 198.757 140.447C199.643 140.873 200.634 141.071 201.66 140.956C203.613 140.736 204.959 139.682 206.39 138.25C206.567 138.069 206.745 137.883 206.923 137.694C207.036 137.522 207.192 137.412 207.366 137.354C207.558 137.289 207.776 137.293 207.976 137.363C208.168 137.43 208.34 137.557 208.456 137.726C208.566 137.887 208.628 138.085 208.608 138.313C208.477 139.797 207.699 141.121 206.595 142.16C205.369 143.315 203.744 144.114 202.214 144.394C200.529 144.703 198.811 144.481 197.256 143.848V143.848ZM203.009 120.963C204.803 122.051 207.535 124.587 205.606 127.284C203.335 129.662 200.066 126.936 198.454 125.703C196.96 124.747 195.282 127.205 196.668 128.321C208.311 136.923 213.035 121.247 203.916 119.684C202.912 119.511 202.54 120.626 203.009 120.963ZM182.146 110.956C182.344 108.501 186.09 107.944 186.462 110.373C186.796 112.549 186.403 114.547 185.421 116.506C184.483 118.378 182.124 117.505 181.946 115.8C181.707 113.516 182.022 112.483 182.146 110.956ZM210.66 109.869C211.182 109.187 211.936 108.721 212.839 108.984C215.662 109.807 214.83 113.806 213.839 115.753C213.3 116.81 211.559 117.078 210.772 116.147C209.49 114.629 208.876 111.598 210.506 110.103C210.55 110.026 210.599 109.948 210.66 109.869ZM185.381 100.216L185.827 100.138C187.207 99.8997 188.922 99.6709 189.897 100.778C190.415 101.364 190.593 102.455 189.897 103.017C188.674 104.005 187.321 103.622 185.855 103.706C184.646 103.775 183.485 103.975 182.321 104.307C179.768 105.035 177.687 106.365 175.506 107.825C175.22 108.016 174.928 107.651 175.064 107.384C176.323 104.923 178.763 102.901 181.207 101.669C182.511 101.011 183.938 100.466 185.381 100.216ZM208.087 99.1133L208.428 99.183C212.142 99.9576 216.966 101.505 218.725 105.146C218.792 105.66 218.721 105.771 218.664 105.843L218.645 105.867C218.597 105.928 218.559 106.013 218.336 106.083C218.274 106.068 218.211 106.053 218.148 106.036C217.342 105.825 216.704 105.535 216.086 105.234L215.417 104.904C214.64 104.524 213.857 104.158 213.026 103.888C211.254 103.311 209.431 102.904 207.58 102.687C207.179 102.64 206.792 102.505 206.488 102.274C206.198 102.054 205.977 101.75 205.877 101.345C205.746 100.821 205.784 100.425 206.065 99.9527C206.277 99.598 206.58 99.3521 206.927 99.2109C207.282 99.067 207.685 99.033 208.087 99.1133Z" fill="black"/>
</svg>
